<svg viewBox="-1.125 -1.125 2.25 2.25" xmlns="http://www.w3.org/2000/svg">
<g id="polygon">
    <linearGradient id="polygonGradient0"
       x1="0" y1="1"
       x2="0.9510565162951535" y2="0.30901699437494745"
       gradientUnits="userSpaceOnUse">
      <stop offset="0%"   stop-color="hsl(-90, 100%, 50%)" />
      <stop offset="100%" stop-color="hsl(-18, 100%, 50%)" />
    </linearGradient>
    
      <line
       x1="0" y1="1"
       x2="0.9510565162951535" y2="0.30901699437494745"
       stroke="url(#polygonGradient0)" stroke-width="0.25"
       stroke-linecap="round"
      />
    
    <linearGradient id="polygonGradient1"
       x1="0.9510565162951535" y1="0.30901699437494745"
       x2="0.5877852522924732" y2="-0.8090169943749473"
       gradientUnits="userSpaceOnUse">
      <stop offset="0%"   stop-color="hsl(-18, 100%, 50%)" />
      <stop offset="100%" stop-color="hsl(54, 100%, 50%)" />
    </linearGradient>
    
      <line
       x1="0.9510565162951535" y1="0.30901699437494745"
       x2="0.5877852522924732" y2="-0.8090169943749473"
       stroke="url(#polygonGradient1)" stroke-width="0.25"
       stroke-linecap="round"
      />
    
    <linearGradient id="polygonGradient2"
       x1="0.5877852522924732" y1="-0.8090169943749473"
       x2="-0.587785252292473" y2="-0.8090169943749475"
       gradientUnits="userSpaceOnUse">
      <stop offset="0%"   stop-color="hsl(54, 100%, 50%)" />
      <stop offset="100%" stop-color="hsl(126, 100%, 50%)" />
    </linearGradient>
    
      <line
       x1="0.5877852522924732" y1="-0.8090169943749473"
       x2="-0.587785252292473" y2="-0.8090169943749475"
       stroke="url(#polygonGradient2)" stroke-width="0.25"
       stroke-linecap="round"
      />
    
    <linearGradient id="polygonGradient3"
       x1="-0.587785252292473" y1="-0.8090169943749475"
       x2="-0.9510565162951536" y2="0.30901699437494723"
       gradientUnits="userSpaceOnUse">
      <stop offset="0%"   stop-color="hsl(126, 100%, 50%)" />
      <stop offset="100%" stop-color="hsl(198, 100%, 50%)" />
    </linearGradient>
    
      <line
       x1="-0.587785252292473" y1="-0.8090169943749475"
       x2="-0.9510565162951536" y2="0.30901699437494723"
       stroke="url(#polygonGradient3)" stroke-width="0.25"
       stroke-linecap="round"
      />
    
    <linearGradient id="polygonGradient4"
       x1="-0.9510565162951536" y1="0.30901699437494723"
       x2="0" y2="1"
       gradientUnits="userSpaceOnUse">
      <stop offset="0%"   stop-color="hsl(198, 100%, 50%)" />
      <stop offset="100%" stop-color="hsl(-90, 100%, 50%)" />
    </linearGradient>
    
      <line
       x1="-0.9510565162951536" y1="0.30901699437494723"
       x2="0" y2="1"
       stroke="url(#polygonGradient4)" stroke-width="0.25"
       stroke-linecap="round"
      />
    </g><g id='mice'><path class="mouse" fill="none" stroke="hsl(-90, 100%, 50%)" stroke-width="0.25" d="M 0 1 L 0.0948454626568893 0.9360226029456784 L 0.17755499366737731 0.8671426514386037 L 0.24844003330375802 0.7948248362033555 L 0.3079310159697881 0.7204106021677493 L 0.35655806796127676 0.6451147473546598 L 0.3949326175540313 0.5700240700977187 L 0.4237300533250557 0.4960978470043481 L 0.44367353728184383 0.4241699251195136 L 0.4555190520177663 0.35495221548952555 L 0.46004173586020947 0.2890393814261884 L 0.4580235369209495 0.2269145228772096 L 0.4502421961449894 0.16895566808269014 L 0.43746155089941824 0.11544289482016028 L 0.4204231343311955 0.06656591571149494 L 0.39983903160810247 0.022431975004434352 L 0.3763859421726988 -0.01692608230829003 L 0.3507003871971527 -0.051541694442797235 L 0.323374993422789 -0.08150653147024206 L 0.29495577838428727 -0.1069626066067028 L 0.26594035752652967 -0.12809463471804122 L 0.23677699078658881 -0.14512270966089907 L 0.20786438469389837 -0.15829535968098474 L 0.17955216579550287 -0.16788302833900012 L 0.1521419420973885 -0.17417201741219498 L 0.12588887108586486 -0.17745891798620722 L 0.10100365561669138 -0.1780455465508657 L 0.07765489240074877 -0.1762343943724295 L 0.055971701846105684 -0.17232459074635664 L 0.03604657251679398 -0.16660837393924088 L 0.01793835832566034 -0.15936805769470563 L 0.0016753716877726955 -0.15087347608449775 L -0.012741478873796815 -0.1413798852029232 L -0.025335552843277816 -0.13112629669308315 L -0.03615138439577269 -0.12033421531419823 L -0.04525166724714979 -0.10920675066311744 L -0.05271434815620777 -0.09792807169887935 L -0.058629854641135556 -0.0866631718335042 L -0.06309847777938467 -0.07555791199018053 L -0.06622792653306687 -0.06473930913625807 L -0.06813106590829221 -0.054316038317790014 L -0.06892384743688336 -0.04437911710053603 L -0.068723436976607 -0.03500274250663075 L -0.06764654166951832 -0.02624525197587599 L -0.06580793507997443 -0.018150181527640644 L -0.06331917705233349 -0.010747396108284053 L -0.06028752267715051 -0.0040542690375822334 L -0.05681501292401803 0.0019231105231522557 L -0.05299773797622301 0.007188721104268837 L -0.04892526307169157 0.011755400417991713 L -0.0446802056988054 0.015643659709561927 L -0.04033795229554383 0.018880533862048774 L -0.03596650213581846 0.0214984781986613 L -0.03162642583684902 0.023534321058103568 L -0.02737092586460427 0.02502827944604514 L -0.02324598652925402 0.026023043401314803 L -0.019290601228014514 0.026562933168349956 L -0.015537065087957064 0.026693131844511615 L -0.012011321666211949 0.02645899487646943 L -0.008733352960330528 0.025905436616151873 L -0.005717602649184281 0.025076393113963223 L -0.002973423207638703 0.024014359423571077 L -0.0005055383005356384 0.022759998915527303 L 0.0016854873512573835 0.021351821441957766 L 0.003602777640985727 0.01982592665610031 L 0.005252680491649339 0.018215808362243936 L 0.006644314438021859 0.016552215446567924 L 0.007789131027093018 0.014863064709902138 L 0.008700496947574507 0.013173400781552885 L 0.009393299091680631 0.011505398230858206 L 0.009883575084299682 0.009878401001749514 L 0.010188171190136453 0.008308994367024267 L 0.010324428931601596 0.00681110472512695 L 0.010309901221344588 0.005396122735063009 L 0.010162098334676203 0.004073045497002776 L 0.009898263619199352 0.0028486337299035423 L 0.009535178461538212 0.0017275801662403514 L 0.0090889957032645 0.0007126856713010232 L 0.008575100418555205 -0.00019496010542932924 L 0.00800799673289754 -0.0009957964318816793 L 0.007401219173013347 -0.0016916101232604343 L 0.006767266890519702 -0.0022853573674329834 L 0.006117558992841848 -0.002780990710879695 L 0.005462409141535675 -0.003183292876972265 L 0.004811017537325677 -0.0034977188068921897 L 0.004171478399621495 -0.0037302470461773427 L 0.0035508010628262005 -0.003887241348568666 L 0.002954942849204877 -0.003975323134971637 L 0.0023888519353214483 -0.004001255230003831 L 0.001856518503053393 -0.003971837102462563 L 0.0013610325540639914 -0.0038938116594764054 L 0.000904646865606953 -0.003773783487164624 L 0.0004888436730850123 -0.003618148293118847 L 0.0001144037784924687 -0.0034330331875092076 L -0.0002185230984544243 -0.003224247339472083 L -0.0005103477900515387 -0.0029972424628592113 L -0.0007619719149363716 -0.002757082519481436 L -0.000974719702333684 -0.002508421977617347 L -0.0011502721159266378 -0.0022554919276469125 L -0.0012906038754420346 -0.002002093334022649 L -0.0013979238674106853 -0.0017515966921789977 L -0.0014746193357516328 -0.0015069473591607517 L -0.001523204148483449 -0.001270675836481605 L -0.0015462713494791608 -0.0010449123017798841 L -0.0015464501240979986 -0.0008314047110275244 L -0.0015263672349563983 -0.0006315398242214051 L -0.001488612919129415 -0.00044636654354781994 L -0.0014357111806794286 -0.0002766209929276446 L -0.001370094362472602 -0.00012275281065634333 L -0.0012940818385619385 0.000015047828342860748 L -0.0012098626327143142 0.00013682289814844875 L -0.001119481739603017 0.00024281930641855326 L -0.0010248299023940788 0.0003334621227679454 L -0.0009276365835029964 0.0004093285503742243 L -0.0008294658537391932 0.00047112289612106004 L -0.0007317149184206629 0.0005196527521905261 L -0.0006356149968518569 0.0005558065617038173 L -0.0005422342733320503 0.0005805327030683659 L -0.0004524826431206499 0.0005948201923437426 L -0.00036711798506102865 0.0005996810703532289 L -0.00028675370340076574 0.0005961345115520577 L -0.00021186729430760373 0.0005851926648763293 L -0.00014280970725324754 0.0005678482129527275 L -0.00007981528743270541 0.0005450636151223927 L -0.000023012102343898014 0.0005177619816614906 L 0.00002756752676164455 0.0004868195112746154 L 0.00007197644993345122 0.0004530594112779939 L 0.00011034221349121792 0.0004172472097391255 L 0.0001428568105368414 0.0003800873610426775 L 0.00016976676525534118 0.00034222104074086617 L 0.00019136364244796243 0.0003042250219426379 L 0.00020797505767126007 0.0002666115237162691 L 0.0002199562481457586 0.00022982892183829145 L 0.0002276822503472457 0.00019426321353161805 L 0.00023154071697917928 0.00016024013041351072 L 0.0002319253939000301 0.00012802779754021083 L 0.00022923026657815216 0.00009783984101666048 L 0.00022384437578391574 0.00006983885197163866 L 0.0002161472935026878 0.00004414012062486271 L 0.00020650524244644568 0.00002081556054732302 L 0.00019526783602722417 -1.0225009562791133e-7 L 0.0001827654101921461 -0.00001861597665067309 L 0.00016930691405824463 -0.00003475944480828958 L 0.00015517832276895993 -0.000048593618601266586 L 0.0001406415333605373 -0.00006020268518704951 L 0.00012593370260864916 -0.00006969028539345613 L 0.00011126698475350206 -0.00007717592262202276 L 0.0000968286266038324 -0.00008279157662478327 L 0.00008278137772430381 -0.00008667854294297819 L 0.00006926417414508077 -0.00008898451345466183 L 0.00005639305522625596 -0.00008986090854802517 L 0.000044262274894933935 -0.00008946046693575613 L 0.000032945570383430385 -0.00008793509506259899 L 0.000022497553770839123 -0.00008543397443628145 L 0.000012955194008465535 -0.00008210192202788649 L 0.000004339359637715722 -0.0000780779961329284 L -0.000003343604963338024 -0.00007349433774560031 L -0.000010100294287148596 -0.00006847523555871625 L -0.000015948669146279822 -0.00006313640114035299 L -0.000020916515984467715 -0.00005758443963207542 L -0.000025039954555077975 -0.00005191650043786674 L -0.00002836200794384137 -0.0000462200918009989 L -0.00003093124649126976 -0.00004057304287064747 L -0.00003280051487557678 -0.00003504359681319154 L -0.000034025749464704185 -0.00002969061869690443 L -0.000034664891048006856 -0.000024563902245517103 L -0.00003477689622271812 -0.000019704560088953498 L -0.00003442084904284735 -0.00001514548281234771 L -0.00003365517304118506 -0.000010911852892371185 L -0.00003253694240861787 -0.000007021700489388989 L -0.000031121289956762074 -0.0000034864890129971483 L -0.000029460908495841256 -3.1171937665904235e-7 L -0.00002760564142391987 0.0000025024571142511027 L -0.0000256021576388221 0.000004960626254632878 L -0.00002349370534192703 0.000007071506785370597 L -0.000021319938894249274 0.000008847361540670081 L -0.000019116812599820147 0.00001030342984674095 L -0.000016916535118941202 0.000011457386159969419 L -0.000014747578143672145 0.000012328829016315637 L -0.000012634732989114422 0.000012938803499228961 L -0.00001059920885588333 0.000013309359626249543 L -0.000008658766691030008 0.000013463148308635253 L -0.000006827882806286192 0.000013423055856541064 L -0.000005117936693964913 0.00001321187738605382 L -0.000003537417802749645 0.0000128520289342808 L -0.0000020921463890842924 0.000012365297604310986 L -7.85503936682861e-7 0.000011772628642003562 L 3.813309708008227e-7 0.000011093947989294308 L 0.0000014091450376090895 0.000010348018561532026 L 0.0000023004542140816417 0.000009552328256252506 L 0.0000030592721343370094 0.00000872300751435326 L 0.0000036908855497598738 0.000007874774118124928 L 0.000004201638894013091 0.000007020902820075756 L 0.0000045987297504512825 0.000006173217347855916 L 0.000004890016646700271 0.000005342102319673767 L 0.000005083840276162186 0.000004536532627206817 L 0.000005188858944139109 0.0000037641178949996022 L 0.000005213898758457563 0.0000030311597026535363 L 0.000005167818831771977 0.000002342719354829538 L 0.00000505939153555115 0.0000017026941004521824 L 0.000004897197644148653 0.0000011138998329736219 L 0.000004689536031027469 5.781584447990382e-7 L 0.000004444347427556016 9.638815790668964e-8 L 0.000004169151626967403 -3.3130469351772447e-7 L 0.000003870997411012334 -7.05533796541202e-7 L 0.000003556424393298907 -0.0000010275421210959016 L 0.0000032314359099205455 -0.000001299113367811363 L 0.0000029014820432423254 -0.0000015224865099829888 L 0.0000025714518370877932 -0.000001700274192806102 L 0.0000022456737494402737 -0.0000018353856148603965 L 0.0000019279233905228054 -0.0000019309543863729416 L 0.0000016214376081322935 -0.0000019902717368435137 L 0.0000013289340067843201 -0.0000020167253318022315 L 0.0000010526350210268056 -0.0000020137438552141043 L 7.942957047132058e-7 -0.0000019847474206016614 L 5.552344456703589e-7 -0.000001933103790421349 L 3.3636586771533375e-7 -0.0000018620903095571501 L 1.382352381222914e-7 -0.0000017748613948172086 L -3.894624273708761e-8 -0.0000016744213677599473 L -1.9526583280933857e-7 -0.0000015636023726675332 L -3.3107382353945835e-7 -0.000001445047084582568 L -4.4694874137464987e-7 -0.0000013211958835230017 L -5.436635591177579e-7 -0.0000011942781497368685 L -6.221532433847707e-7 -0.0000010663073205637823 L -6.834839094572588e-7 -9.39079341521974e-7 L -7.288238026197015e-7 -8.141741420130407e-7 L -7.594162759992158e-7 -6.929597689034325e-7 L -7.765548892642109e-7 -5.765988185794482e-7 L -7.815607104947189e-7 -4.660568192715424e-7 L -7.757618652454051e-7 -3.6211222991395034e-7 L -7.604753423527636e-7 -2.6536773898188287e-7 L -7.369910354028487e-7 -1.7626256609516085e-7 L -7.065579719356522e-7 -9.508549019164636e-8 L -6.70372659332275e-7 -2.1988350289531204e-8 L -6.295694567879488e-7 4.3000212154280887e-8 L -5.852128666615008e-7 9.996097691143754e-8 L -5.382916256268669e-7 1.4907051889278408e-7 L -4.897144662300998e-7 1.9058789339327014e-7 L -4.403074124550342e-7 2.2484177118314304e-7 L -3.908124684898484e-7 2.522181401591944e-7 L -3.4188755782550675e-7 2.731486694478057e-7 L -2.9410756986255424e-7 2.8809981216615716e-7 L -2.479663731123883e-7 2.9756270462631526e-7 L -2.038796576138145e-7 3.0204390270495655e-7 L -1.621884741124892e-7 3.020569804663578e-7 L -1.2316334364536338e-7 2.981150019587301e-7 L -8.700881822057025e-8 2.9072386442086556e-7 L -5.3868381083530335e-8 2.8037649993289046e-7 L -2.3829583423903275e-8 2.6754791279831535e-7 L 3.070676868805231e-9 2.52691021614812e-7 L 2.6840819809958928e-8 2.3623326802449695e-7 L 4.7529267624560787e-8 2.1857394846557865e-7 L 6.521921606511764e-8 2.000822208011627e-7 L 8.002355118476465e-8 1.810957343955334e-7 L 9.207996139096499e-8 1.61919829955594e-7 L 1.0154628632588202e-7 1.4282725416389712e-7 L 1.0859613624751633e-7 1.2405833370630375e-7 L 1.1341480817716899e-7 1.0582155364762878e-7 L 1.1619551817746569e-7 8.829448613920135e-8 L 1.1713596276312408e-7 7.162501706146672e-8 L 1.1643521664519472e-7 5.5932820323774126e-8 L 1.1429096878019598e-7 4.1311032077184424e-8 L 1.1089709404111924e-7 2.782807996369885e-8 L 1.0644155374259181e-7 1.5529625650870374e-8 L 1.0110461472556895e-7 4.4405822137693716e-9 L 9.505737371987768e-8 -5.432828638161508e-9 L 8.846057123283675e-8 -1.4101010992754513e-8 L 8.146367723198153e-8 -2.1588948819168004e-8 L 7.420422936927286e-8 -2.7934204225469714e-8 L 6.680740340018405e-8 -3.3184981016058295e-8 L 5.938579474904899e-8 -3.739827139384016e-8 L 5.203938982617989e-8 -4.063810051404133e-8 L 4.485570567614734e-8 -4.297388062645598e-8 L 3.7910076793866606e-8 -4.4478883760395416e-8 L 3.1266068449840046e-8 -4.5228839326482966e-8 L 2.4975996583032908e-8 -4.5300660642259537e-8 L 1.9081535215624352e-8 -4.477130224084644e-8 L 1.3614393386032303e-8 -4.3716747896558715e-8 L 8.597044754704278e-9 -4.221112759803153e-8 L 4.043494282721228e-9 -4.03259602149062e-8 L -3.993231007153309e-11 -3.8129517332717393e-8 L -3.653789257035241e-9 -3.5686302664489826e-8 L -6.804713217628237e-9 -3.3056640577069e-8 L -9.504637747594527e-9 -3.029636658429388e-8 L -1.1770028669986752e-8 -2.745661214554912e-8 L -1.3621147954279953e-8 -2.4583675753934917e-8 L -1.5081352463881366e-8 -2.1718972089606168e-8 L -1.6176432745374158e-8 -1.8899050936765565e-8 L -1.6933995914495207e-8 -1.6155677603236744e-8 L -1.738289565089334e-8 -1.3515966725467476e-8 L -1.7552711351136683e-8 -1.1002561575447882e-8 L -1.7473277610602463e-8 -8.633851296012747e-9 L -1.7174264411673517e-8 -6.424218864502493e-9 L -1.668480768862943e-8 -4.384313009599287e-9 L -1.60331893181124e-8 -2.5213377708755853e-9 L -1.5246565046379495e-8 -8.393538845287872e-10 L -1.4350738408130553e-8 6.604133078932862e-10 L -1.3369978313166533e-8 1.979264207192335e-9 L -1.2326877672494308e-8 3.1207178138898895e-9 L -1.1242250200250096e-8 4.090210827111093e-9 L -1.0135062357072797e-8 4.89480620646935e-9 " /><path class="mouse" fill="none" stroke="hsl(-18, 100%, 50%)" stroke-width="0.25" d="M 0.9510565162951535 0.30901699437494745 L 0.9195192557313719 0.19904349612842517 L 0.8795691796874969 0.09909698211377613 L 0.8326955321583686 0.009333869355996805 L 0.7803071146295616 -0.07024068030973007 L 0.723723086711283 -0.1397554537176919 L 0.664165996768698 -0.19945611455929194 L 0.6027568776183263 -0.24968856276772108 L 0.5405122342758774 -0.29088289337493983 L 0.47834274584977027 -0.323538095940786 L 0.4170535016738522 -0.34820760975327136 L 0.3573455923566704 -0.3654858255656823 L 0.29981887928854367 -0.37599560182120867 L 0.24497577099223075 -0.3803768422322066 L 0.193225841237292 -0.379276162305934 L 0.14489113178266275 -0.37333765498626553 L 0.10021199170054282 -0.3631947500266869 L 0.05935331521707844 -0.34946314801279077 L 0.022411050648138982 -0.3327347980785073 L -0.010581135903384185 -0.3135728782553988 L -0.03964514708519336 -0.2925077289875948 L -0.06485178465539139 -0.270033683551302 L -0.08631420592817933 -0.24660673384093376 L -0.10418157746953144 -0.22264296611860276 L -0.11863298645083867 -0.1985176987584588 L -0.1298716597572604 -0.1745652526363804 L -0.13811953116498066 -0.15107928450087924 L -0.14361218771503964 -0.1283136142943884 L -0.1465942178726837 -0.10648347885820027 L -0.14731497620759637 -0.08576714663460422 L -0.14602477218603535 -0.0663078307654478 L -0.14297148424284614 -0.048215841271404596 L -0.13839759460077342 -0.0315709206803209 L -0.1325376353180657 -0.016424711462074554 L -0.1256160317563073 -0.0028033078341707287 L -0.11784532604474737 0.00929015115325097 L -0.10942476014510408 0.0198728859348908 L -0.10053919575690455 0.028979912422900586 L -0.09135834650893676 0.03666153959593638 L -0.08203629661541777 0.042980954362792936 L -0.07271127939201336 0.04801191528689796 L -0.06350568868159358 0.051836572853559484 L -0.054526296286759736 0.054543430274522166 L -0.0458646489000393 0.056225455377428714 L -0.03759761871823793 0.05697835093870693 L -0.02978808288099597 0.0568989878993294 L -0.022485708043010814 0.056084003261014787 L -0.015727817734554124 0.05462856209849608 L -0.00954032164804009 0.05262528104023094 L -0.003938687574227962 0.050163308760628716 L 0.0010710616323835608 0.047327557483730034 L 0.005491341983023806 0.04419807821092475 L 0.00933200739307536 0.04084957134119936 L 0.012609366343966373 0.03735102353729087 L 0.01534522701487775 0.033765461089356595 L 0.01756598011210143 0.0301498096227195 L 0.01930172707050517 0.02655484977062059 L 0.020585459826160012 0.023025258369048666 L 0.02145229697212282 0.01959972481087674 L 0.021938779818645414 0.01631113240312186 L 0.022082230690532473 0.013186794886934671 L 0.021920174711811975 0.010248738688239641 L 0.02148982535330993 0.007514021951814493 L 0.020827633152487063 0.004995081957877938 L 0.019968896255892658 0.0027001031137442997 L 0.018947430780437244 0.0006333983406111052 L 0.017795298436899303 -0.0012042026750496775 L 0.016542588403253903 -0.0028149642357392832 L 0.015217250071371426 -0.004203859601784785 L 0.01384497301260451 -0.005378194730265583 L 0.01244911030951986 -0.0063472447014245445 L 0.01105064127597156 -0.007121906133933629 L 0.009668169529081982 -0.007714368301894189 L 0.008317952377632614 -0.008137805110051652 L 0.007013957545015428 -0.008406089562989728 L 0.005767943344498813 -0.008533531881756914 L 0.004589558563538433 -0.008534641979369756 L 0.003486458485870639 -0.008423916606088828 L 0.002464433679119137 -0.008215651116755032 L 0.00152754839591987 -0.007923775495681889 L 0.0006782856727971418 -0.007561713998967154 L -0.00008230354171877416 -0.007142267538493997 L -0.0007544496444589994 -0.006677517734822958 L -0.0013395141789568203 -0.006178751405784876 L -0.0018398420841933773 -0.0056564041317584066 L -0.0022586180435066523 -0.005120021445030258 L -0.0025997283429102613 -0.00457823612681333 L -0.0028676294140826124 -0.0040387600588542025 L -0.003067224014795389 -0.003508389064454583 L -0.00320374579014484 -0.0029930191835013426 L -0.003282652762867762 -0.0024976728551059277 L -0.00330953012117438 -0.0020265335271069064 L -0.0032900025085169215 -0.0015829872714795985 L -0.003229655871863269 -0.0011696700562175977 L -0.003133968793438119 -0.0007885194052190031 L -0.0030082531153864064 -0.00044082926598037857 L -0.0028576035670680356 -0.00012730699847973505 L -0.0026868560202041474 0.0001518685043183413 L -0.0025005539272166693 0.00039698845504623103 L -0.0023029224420710813 0.0006087563611571227 L -0.0020978496798901196 0.0007882314582111939 L -0.001888874540624752 0.0009367739847122945 L -0.001679180502168427 0.0010559928032485703 L -0.0014715947784688657 0.0011476957840012222 L -0.0012685922374007389 0.0012138432827379466 L -0.0010723034803842833 0.0012565049667557107 L -0.0008845264999543819 0.001277820169302493 L -0.0007067413517119309 0.001279961886087459 L -0.0005401273023695986 0.0012651044667687163 L -0.00038558194502604263 0.0012353949998699198 L -0.00024374180550546315 0.0011929283414124562 L -0.00011500399877812245 0.0011397256955685488 L 4.5146861268468034e-7 0.00107771661968165 L 0.00010263911623271874 0.0010087242958427903 L 0.0001917454552726482 0.0009344538865835283 L 0.00026810679135185183 0.0008564837728349293 L 0.00033218761640122163 0.0007762594577624647 L 0.0003845598047834594 0.0006950899100495594 L 0.00042588279356848207 0.0006141461142819356 L 0.00045688489333374905 0.0005344615938855399 L 0.0004783458442492273 0.0004569346731940558 L 0.0004910807027254749 0.0003823322492714144 L 0.0004959251166922888 0.0003112948507012369 L 0.0004937220227299219 0.00024434276930110577 L 0.0004853097758484962 0.00018188306126246136 L 0.000471511702719583 0.00012421722621235512 L 0.0004531270515889997 0.00007154938581740387 L 0.0004309232968941045 0.00002399479750165975 L 0.00040562974369915674 -0.000018411446648895794 L 0.00037793236635387637 -0.000055705670924837276 L 0.0003484698071604969 -0.00008798693723774836 L 0.0003178304541762704 -0.00011540854210058998 L 0.00028655051244339257 -0.00013816978045195813 L 0.00025511297978051594 -0.00015650805347433743 L 0.0002239474366380844 -0.00017069138419207176 L 0.0001934305592597506 -0.00018101139197062771 L 0.00016388726634992864 -0.0001877767651601397 L 0.00013559241147068475 -0.00019130726009844554 L 0.00010877293633081323 -0.00019192824455845366 L 0.00008361040384234156 -0.00018996579452124323 L 0.00006024383416749735 -0.00018574234489377456 L 0.00003877277183246346 -0.00017957288746854635 L 0.00001926051722145386 -0.00017176170302972044 L 0.000001737461273116571 -0.00016259960902314168 L -0.000013795532122248975 -0.0001523616995940882 L -0.00002736374577527916 -0.0001413055510165536 L -0.00003901527490907198 -0.0001296698625451063 L -0.00004881777728077629 -0.00011767350046364242 L -0.000056855340554304155 -0.00010551491152963219 L -0.00006322549445823116 -0.00009337187106016165 L -0.00006803639020516122 -0.00008140153051803955 L -0.0000714041648778249 -0.0000697407295727446 L -0.0000734505040324597 -0.00005850653817254526 L -0.00007430041165356265 -0.00004779699511226645 L -0.00007408019283093484 -0.00003769201085908632 L -0.00007291565112872764 -0.00002825440395181745 L -0.0000709304995798951 -0.000019531042065426615 L -0.00006824498156587702 -0.000011554060783182998 L -0.00006497469552381856 -0.000004342135198241323 L -0.00006122961545160323 0.0000020982183673469175 L -0.0000571132975405661 0.000007771331023562948 L -0.000052722261940341746 0.000012691078622123197 L -0.00004814553763105204 0.00001687960377211716 L -0.000043464357624404736 0.000020366076450950342 L -0.00003875199121546092 0.000023185504999380128 L -0.0000340736997382237 0.00002537760727583567 L -0.00002948680221775988 0.000026985749834964394 L -0.000025040837436171468 0.000028055961201579662 L -0.00002077780921649698 0.000028636023643994946 L -0.000016732502155165626 0.000028774646317401128 L -0.00001293285557830978 0.000028520721253168922 L -0.000009400384139364818 0.000027922662416078588 L -0.000006150634195352167 0.000027027826938721648 L -0.000003193665878686592 0.000025882016669038786 L -5.345516032384683e-7 0.00002452905732987244 L 0.0000018261174079173016 0.000023010451883833878 L 0.000003891724124309724 0.000021365104116842527 L 0.0000056691249294576584 0.00001962910799254901 L 0.000007168160901990784 0.000017835597979893203 L 0.000008401186167980344 0.000016014655309083757 L 0.000009382617536865083 0.00001419326495871743 L 0.000010128508870921824 0.000012395318109739545 L 0.000010656152918216436 0.00001064165481153091 L 0.00001098371266593092 0.000008950141682667552 L 0.000011129883648309614 0.00000733577960505233 L 0.000011113588073563692 0.00000581083655661542 L 0.000010953701118319108 0.000004385000956399623 L 0.00001066880927711888 0.000003065551158755997 L 0.000010277000247850605 0.0000018575370231952703 L 0.000009795683480833974 7.639697962866439e-7 L 0.000009241440218147107 -2.139831344882434e-7 L 0.000008629901598565833 -0.0000010768017236365065 L 0.000007975653199786827 -0.0000018264177620142383 L 0.000007292164230613699 -0.0000024660228253916645 L 0.000006591739468449886 -0.0000029998817941693313 L 0.000005885491958514456 -0.000003433153745106728 L 0.00000518333444729788 -0.000003771721712576399 L 0.0000044939875104556126 -0.000004022032528752039 L 0.00000382500235113168 -0.0000041909476812983034 L 0.000003182796285176252 -0.000004285605875114951 L 0.0000025726989915063413 -0.000004313297752634741 L 0.000001999007685700113 -0.000004281353015827428 L 0.0000014650494696940028 -0.0000041970400028092035 L 9.73249217211441e-7 -0.000004067477602865144 L 5.252014705190008e-7 -0.00000389955924554413 L 1.2174494670469163e-7 -0.0000036998885718147293 L -2.369616214625171e-7 -0.000003474726287395508 L -5.51363456053478e-7 -0.000003229947609432348 L -8.224345326782498e-7 -0.000002971009646677713 L -0.0000010516040965269621 -0.0000027029279991032885 L -0.0000012406856603025438 -0.0000024302618242285996 L -0.0000013918091282899307 -0.000002157106593090967 L -0.0000015073565758872663 -0.0000018870937473937128 L -0.000001589902105277596 -0.0000016233964696092054 L -0.000001642156096246229 -0.0000013687407883423759 L -0.0000016669140769790328 -0.0000011254212607590026 L -0.0000016670103533811316 -8.953205010658463e-7 L -0.000001645276457258829 -6.799318576581784e-7 L -0.0000016045044037032415 -4.803845804438496e-7 L -0.0000015474146861773862 -2.974708628979201e-7 L -0.000001476628884010468 -1.3167418955779808e-7 L -0.0000013946467110246756 1.6801532025698487e-8 L -0.000001303827295564471 1.4800252629006766e-7 L -0.0000012063744509053586 2.621958129729136e-7 L -0.0000011043256704753317 3.598403502737911e-7 L -9.995445640735676e-7 4.41558980448129e-7 L -8.937164388332896e-7 5.081114528586935e-7 L -7.883467215442848e-7 5.603687538163766e-7 L -6.847619166092502e-7 5.992889290954029e-7 L -5.841127958373135e-7 6.258945441188935e-7 L -4.87379521961999e-7 6.412518887205298e-7 L -3.953784167038477e-7 6.464519982738685e-7 L -3.087700958897821e-7 6.425935309604343e-7 L -2.2806870812213665e-7 6.307675120847877e-7 L -1.536520293141878e-7 6.120439306544463e-7 L -8.577218265715505e-8 5.874601508966248e-7 L -2.456677186667272e-8 5.580110819162018e-7 L 2.9929765483529855e-8 5.246410322112925e-7 L 7.777475842244602e-8 4.882371621278994e-7 L 1.1910601135048595e-7 4.496244364040397e-7 L 1.5413075646347169e-7 4.095619705590173e-7 L 1.831149664433893e-7 3.6874065884365753e-7 L 2.063731259172102e-7 3.277819675909011e-7 L 2.2425854286593216e-7 2.872377758954066e-7 L 2.3715426477363358e-7 2.4759114540494954e-7 L 2.454646489488885e-7 2.0925790242461703e-7 L 2.496076222104794e-7 1.7258891831885963e-7 L 2.500076520640582e-7 1.3787297815304533e-7 L 2.4708943964226427e-7 1.0534013245879527e-7 L 2.412723340538508e-7 7.516543275811045e-8 L 2.3296545838572884e-7 4.7472957872029426e-8 L 2.225635294078214e-7 2.2340044913129424e-8 L 2.1044334601276104e-7 -1.9835392783250873e-10 L 1.9696091553752e-7 -2.0145260275585633e-8 L 1.8244918230892336e-7 -3.753726811975855e-8 L 1.672163189685251e-7 -5.2440208520492275e-8 L 1.5154453829707295e-7 -6.494492961482109e-8 L 1.356893813025985e-7 -7.516323391420227e-8 L 1.1987943618367338e-7 -8.322400800156048e-8 L 1.0431644235333955e-7 -8.92695731851811e-8 L 8.917573393177902e-8 -9.345227949446613e-8 L 7.46069779095253e-8 -9.593135964624345e-8 L 6.073516347193498e-8 -9.687005429755404e-8 L 4.766180068598413e-8 -9.643301505022021e-8 L 3.546628881143683e-8 -9.478398729442556e-8 L 2.4207416842799533e-8 -9.208377107603699e-8 L 1.3924961452989221e-8 -8.848845474192375e-8 L 4.641350235452014e-9 -8.414791314975766e-8 L -3.6366390256333677e-9 -7.920455970940943e-8 L -1.0916169436825488e-8 -7.379233943355689e-8 L -1.721664990446848e-8 -6.803594849346268e-8 L -2.256807446965386e-8 -6.20502644772276e-8 L -2.7009413850789293e-8 -5.593997060518155e-8 L -3.0587074249622e-8 -4.979935654188504e-8 L -3.3353435866763214e-8 -4.371227812691602e-8 L -3.5365481099833147e-8 -3.775225829714737e-8 L -3.6683520077937975e-8 -3.19827116614615e-8 L -3.737001903302627e-8 -2.645727558503131e-8 L -3.7488535030838305e-8 -2.1220231215351508e-8 L -3.710275878740497e-8 -1.630699860805625e-8 L -3.6275665684092914e-8 -1.1744690960387812e-8 L -3.5068773665027026e-8 -7.552713908621364e-9 L -3.35415054529456e-8 -3.743396869062786e-9 L -3.1750651448654084e-8 -3.2264447842506376e-10 L -2.9749928778937585e-8 2.7094027017051276e-9 L -2.7589631220260974e-8 5.357707928248088e-9 L -2.5316364141783985e-8 7.631687058363018e-9 L -2.297285817113018e-8 9.544573854977287e-9 L -2.0597854979225733e-8 1.1112808225459514e-8 L -1.8226058395113006e-8 1.2355452766400151e-8 L -1.5888143986391346e-8 1.3293641999800184e-8 L -1.3610820264174727e-8 1.3950067754356218e-8 L -1.1416934781565588e-8 1.4348503275723922e-8 L -9.325618580206745e-9 1.4513367845926967e-8 L -7.352462689392485e-9 1.4469332957382928e-8 L -5.5097206858326705e-9 1.4240970423029777e-8 L -3.806531669328239e-9 1.3852442211325056e-8 L -2.249158390786387e-9 1.3327231273025571e-8 L -8.412356752837922e-10 1.2687912174330853e-8 L 4.1597529392549453e-10 1.195595996612143e-8 L 1.5233308319455693e-9 1.1151595398930113e-8 " /><path class="mouse" fill="none" stroke="hsl(54, 100%, 50%)" stroke-width="0.25" d="M 0.5877852522924732 -0.8090169943749473 L 0.4734486906951053 -0.8130069570987035 L 0.3660486548363595 -0.8058973483097498 L 0.2661941078502949 -0.7890561876947985 L 0.17432530253464126 -0.7638217299920782 L 0.09072739806928355 -0.7314883678653565 L 0.01554454262097694 -0.6932947281593539 L -0.05120581600416934 -0.6504138653969113 L -0.10961860516420582 -0.6039454399711379 L -0.15988697681065567 -0.5549097554363556 L -0.20228849669860768 -0.5042435193950694 L -0.23717181511456253 -0.4527971854831165 L -0.2649439382757675 -0.401333729628669 L -0.28605819800600907 -0.35052871185302037 L -0.301002996941758 -0.3009714751391839 L -0.3102913874979768 -0.2531673350661282 L -0.31445152522144104 -0.20754061774372431 L -0.314018021048012 -0.16443840884464278 L -0.30952420239864387 -0.1241348829821087 L -0.3014952800121605 -0.08683609010526656 L -0.290442405914168 -0.05268508376833532 L -0.27685759793470954 -0.021767284881139028 L -0.2612094976694709 0.005884016312688706 L -0.2439399216732536 0.030282107921612327 L -0.22546115991091256 0.051481332211054595 L -0.2061539709912137 0.06957165860221193 L -0.18636622038684977 0.08467341373330711 L -0.1664121056073734 0.09693221951915305 L -0.14657191104563158 0.10651418157165798 L -0.12709223486497068 0.11360136220095927 L -0.10818663073609051 0.11838756456138289 L -0.09003660837187168 0.12107444738259972 L -0.07279293855071012 0.1218679831663579 L -0.05657721057182529 0.12097526675411106 L -0.04148359276151141 0.11860167579175183 L -0.02758074966381733 0.11494837983645054 L -0.014913872824271448 0.11021019066119155 L -0.003506785538210685 0.10457374270185203 L 0.00663591448087143 0.09821598954036927 L 0.015526706913570719 0.09130299980137217 L 0.023193023878538138 0.0839890338300736 L 0.029675173352688995 0.0764158809843459 L 0.03502433259074226 0.06871243627929544 L 0.039300629767213525 0.060994494432067455 L 0.04257132881604412 0.05336473903068098 L 0.04490912937217908 0.04591290455553858 L 0.04639059084546294 0.038716089278049294 L 0.0470946869952002 0.031839197610252584 L 0.04710149493412782 0.025335491246109294 L 0.04649102027975181 0.019247229384232185 L 0.04534215819166439 0.013606379419897669 L 0.04373178828490179 0.00843538070972885 L 0.04173399988800433 0.0037479453160635156 L 0.03941944281401923 -0.00045011899746050547 L 0.03685479772488181 -0.004160076847010729 L 0.034102359284237396 -0.0073894363001355216 L 0.03121972459916065 -0.010151133443959097 L 0.028259578934569457 -0.012462739572691582 L 0.025269570331740304 -0.01434569877320301 L 0.02229226455995364 -0.015824602396022822 L 0.019365171763349405 -0.016926505671164282 L 0.016520836218874426 -0.017680290572422982 L 0.013786980781180383 -0.01811607795709314 L 0.011186697842193734 -0.018264691015397842 L 0.008738678962976445 -0.018157171158676925 L 0.006457475730146815 -0.017824346659328506 L 0.004353784835929778 -0.017296453629092184 L 0.002434750868017735 -0.0166028082847044 L 0.0007042808118397874 -0.01577152889938849 L -0.0008366351965660275 -0.014829305372277921 L -0.0021896017833196954 -0.01380121396214257 L -0.003358499284103533 -0.012710574422481621 L -0.004349171553632879 -0.01157884653743238 L -0.005169123935164642 -0.010425562886897522 L -0.005827234176207906 -0.009268294559406191 L -0.0063334785871153486 -0.008122646476910179 L -0.006698675275913324 -0.007002278991302554 L -0.006934245858630956 -0.005918952452258592 L -0.007051996641839632 -0.004882591524436323 L -0.007063919904758684 -0.0039013661436732862 L -0.006982015573142627 -0.0029817861413071666 L -0.006818133276696402 -0.0021288067281013665 L -0.006583834515917786 -0.0013459422097211115 L -0.0062902744325434 -0.0006353854998389939 L -0.005948102479289632 0.0000018687993601444081 L -0.005567381118112398 0.0005658997700202807 L -0.0051575215402611865 0.0010577358136753439 L -0.00472723529424688 0.0014792321461942048 L -0.004284500627574911 0.001832951542412443 L -0.003836542292677294 0.0021220495180782656 L -0.003389823534780019 0.002350164942242941 L -0.00295004896728428 0.00252131688807134 L -0.002522177046420887 0.002639808355585989 L -0.002110440879269646 0.0027101373371437236 L -0.0017183761355718337 0.002736915546257879 L -0.001348854882020022 0.0027247949932476603 L -0.0010041242158846165 0.0026784024674152192 L -0.0006858486410297563 0.0026022818751066834 L -0.0003951552017952974 0.0025008442860067837 L -0.0001326804672128072 0.0023783254560854473 L 0.00010138146195050149 0.002238750524355399 L 0.00030723066916118845 0.0020859055214896153 L 0.0004854135248972412 0.0019233152807644933 L 0.0006367757587185264 0.0017542273050375886 L 0.000762417003520063 0.0015816011167753155 L 0.0008636472378241018 0.0014081026007094826 L 0.0009419454782076216 0.0012361028396868973 L 0.0009989210040664087 0.0010676809428341071 L 0.0010362773313563956 0.0009046303704387136 L 0.0010557790910875483 0.0007484682711084136 L 0.0010592219124326695 0.0006004473629874799 L 0.001048405359515984 0.0004615699112944175 L 0.0010251089253415697 0.0003326033784359503 L 0.0009910710459100657 0.00021409734973441648 L 0.0009479710622860107 0.00010640136670699195 L 0.000897414028090782 0.000009683330234196302 L 0.000840918234429622 -0.0000760518327180583 L 0.0007799053033952508 -0.0001509435134206387 L 0.0007156926847697252 -0.0002152570196588368 L 0.000649488378087654 -0.00026936563965052973 L 0.0005823876935240498 -0.0003137333528798131 L 0.0005153718598111287 -0.00034889833983140536 L 0.0004493082852438381 -0.0003754574146965463 L 0.0003849522784741436 -0.00039405147878904213 L 0.0003229500388908598 -0.0004053520678234173 L 0.0002638427316123923 -0.00041004904348715263 L 0.00020807146917057595 -0.0004088394589686655 L 0.00015598303053349896 -0.00040241760932993554 L 0.00010783615791714425 -0.0003914662608537572 L 0.00006380828260002985 -0.0003766490387385391 L 0.000024002542430344407 -0.0003586039397215768 L -0.000011545034330510748 -0.0003379379253265135 L -0.000042858291962043994 -0.00031522254237571887 L -0.00007001375787162385 -0.00029099051009185106 L -0.00009313358944343131 -0.00026573320743098394 L -0.00011237873381460518 -0.00023989899012899485 L -0.00012794236565059094 -0.0002138922641831401 L -0.00014004365687847307 -0.00018807324100710067 L -0.00014892192179411857 -0.00016275829916309522 L -0.00015483117105877543 -0.0001382208782613359 L -0.00015803509889910017 -0.00011469283219883617 L -0.00015880251936164068 -0.00009236617126285447 L -0.00015740325977448496 -0.00007139512562964927 L -0.00015410451264803867 -0.0000518984663324848 L -0.00014916764110497956 -0.00003396202374580373 L -0.0001428454275572844 -0.000017641347933811864 L -0.00013537975072773088 -0.0000029644597473854596 L -0.00012699967221857592 0.000010065353763070244 L -0.0001179199106288154 0.000021466741297721908 L -0.00010833967867578706 0.000031277523546303884 L -0.00009844185684489734 0.000039551995951609556 L -0.00008839247572773252 0.000046358325659579767 L -0.00007834047836630299 0.00005177606590786765 L -0.00006841773355085091 0.00005589380689678302 L -0.00005873927107113082 0.000058806978212635906 L -0.00004940371034710029 0.000060615814158830815 L -0.00004049385461604853 0.00006142348991345773 L -0.000032077423882174645 0.00006133443328662199 L -0.000024207901096116916 0.0000604528140040877 L -0.000016925467482710035 0.000058881209898910286 L -0.000010258004534578844 0.000056719447148250356 L -0.000004222141899065995 0.00005406360974336347 L 0.0000011756678286413331 0.00005100521171844211 L 0.000005938064564512864 0.000047630524277353034 L 0.000010075701761810847 0.00004402004883284736 L 0.000013606186487325082 0.00004024812609512562 L 0.000016553050232595616 0.00003638267069885885 L 0.0000189447604005315 0.00003248502042196781 L 0.000020813780733628008 0.000028609888807001258 L 0.000022195687359893555 0.000024805409927795502 L 0.000023128345637771875 0.0000211132641311127 L 0.000023651151590407298 0.000017568873806180572 L 0.000023804340438823814 0.000014201658575924645 L 0.00002362836357708194 0.000011035339744220221 L 0.000023163334282383866 0.000008088284356481146 L 0.00002244854151978899 0.000005373879820029175 L 0.00002152203038348046 0.0000029009306706439527 L 0.000020420247011814385 6.740697482640426e-7 L 0.000019177745217929567 -0.0000013058232550666768 L 0.00001782695158674078 -0.0000030412022001052105 L 0.000016397985397105797 -0.000004537439470433223 L 0.000014918529428613553 -0.000005802420415453001 L 0.00001341374749905937 -0.000006846151486474951 L 0.000011906244444171994 -0.000007680385622041903 L 0.00001041606418823573 -0.000008318267804383952 L 0.000008960721555511193 -0.000008774003109255984 L 0.000007555263530410885 -0.00000906254901025149 L 0.000006212355781947932 -0.000009199333178935135 L 0.000004942390417952779 -0.000009199997545839668 L 0.000003753611120108743 -0.00000908016895577261 L 0.0000026522520254772636 -0.000008855256364489781 L 0.0000016426869577199881 -0.000008540274182480273 L 7.275858659361592e-7 -0.000008149691074660548 L -9.192440438664716e-8 -0.000007697303270984454 L -8.160976102149258e-7 -0.000007196131230705837 L -0.0000014464062052869068 -0.000006658338330290142 L -0.000001985382080651701 -0.0000060951701094811185 L -0.0000024364617319792943 -0.000005516912509283292 L -0.000002803837371725154 -0.000004932867466947727 L -0.0000030923152520461297 -0.0000043513441936627015 L -0.0000033071822245759563 -0.0000037796644477036386 L -0.000003454081337493324 -0.0000032241801264204334 L -0.0000035388970600858977 -0.0000026903015317888783 L -0.000003567650531207279 -0.000002182534713534996 L -0.000003546405051290934 -0.0000017045263583520515 L -0.0000034811818782776234 -0.000001259114770875961 L -0.00000337788624601442 -8.4838557940482e-7 L -0.0000032422433992387282 -4.7373089453066647e-7 L -0.0000030797443318053245 -1.359107497475046e-7 L -0.000002895600823803291 1.6488424226788403e-7 L -0.0000026947092979451053 4.2896997743543886e-7 L -0.0000024816229552685484 6.571065449539302e-7 L -0.0000022605316038490186 8.504372559526602e-7 L -0.000002035248560874074 0.0000010104296597762096 L -0.0000018092039870269127 0.0000011388190916149554 L -0.0000015854440015697467 0.0000012375551996077633 L -0.0000013666349257035262 0.0000013087518090711347 L -0.0000011550720095989344 0.00000135464039674789 L -9.52692013851065e-7 0.0000013775273693716084 L -7.610890379396982e-7 0.0000013797552687312034 L -5.815330155494905e-7 0.0000013636679599921236 L -4.1499032833749944e-7 0.0000013315798013753506 L -2.6214602500158065e-7 0.0000012857487414024035 L -1.2342717043486644e-7 0.0000012283532446864024 L 9.73110453859807e-10 0.0000011614729085123186 L 1.1107128875141812e-7 0.0000010870725999652342 L 2.0706914049511102e-7 0.0000010069899168407195 L 2.893298204296846e-7 9.229257546689404e-7 L 3.5835457182807787e-7 8.364377465316005e-7 L 4.1476030415362e-7 7.489363315501445e-7 L 4.592582323589811e-7 6.616832015588569e-7 L 4.926337354611663e-7 5.757918731213451e-7 L 5.157275579656232e-7 4.922301332736712e-7 L 5.294184459419417e-7 4.1182411175483185e-7 L 5.346072802308176e-7 3.3526373959596524e-7 L 5.322027424895524e-7 2.6310936337655606e-7 L 5.231085256188418e-7 1.957992958282904e-7 L 5.082120785736837e-7 1.336580964039192e-7 L 4.883748566263725e-7 7.690538958049592e-8 L 4.644240317683394e-7 2.5665043708843673e-8 L 4.3714560403113006e-7 -2.002545114510161e-8 L 4.072788429728359e-7 -6.020555196887826e-8 L 3.755119792932619e-7 -9.498230775793159e-8 L 3.4247905937196685e-7 -1.2452119435075877e-7 L 3.0875787031907283e-7 -1.490372372946497e-7 L 2.7486883973182895e-7 -1.6878650584785517e-7 L 2.4127481259718605e-7 -1.8405804682025805e-7 L 2.0838160750617746e-7 -1.951663133061437e-7 L 1.7653925538349455e-7 -2.0244413056135087e-7 L 1.4604382612100444e-7 -2.062362293931723e-7 L 1.1713975167663673e-7 -2.068933665150386e-7 L 9.002255820513044e-8 -2.047670414009938e-7 L 6.484192447654896e-8 -2.0020481027227433e-7 L 4.170498907225032e-8 -1.935461899599485e-7 L 2.0679834495110667e-8 -1.8511913750029397e-7 L 1.7990822698498704e-9 -1.752370854085459e-7 L -1.4936460770970914e-8 -1.6419650760706707e-7 L -2.955415862016986e-8 -1.5227498691278063e-7 L -4.2105952064228296e-8 -1.3972975176595693e-7 L -5.266485580373348e-8 -1.2679664745288494e-7 L -6.132158210407592e-8 -1.136895053792714e-7 L -6.818132063463033e-8 -1.005998729272978e-7 L -7.33606987036116e-8 -8.769706601336254e-8 L -7.698494095405554e-8 -7.51285065912469e-8 L -7.918524278570163e-8 -6.302030795265582e-8 L -8.009636733160747e-8 -5.147807170077025e-8 L -7.985447176326972e-8 -4.058786165137091e-8 L -7.85951650331882e-8 -3.041732159139967e-8 L -7.645179589233285e-8 -2.1016905740542673e-8 L -7.355396713949526e-8 -1.24211928648597e-8 L -7.002626956281441e-8 -4.6502572335516454e-9 L -6.598722690945706e-8 2.2889280546156567e-9 L -6.154844145253573e-8 8.401077461220678e-9 L -5.681392829693425e-8 1.37011887980885e-8 L -5.187962545747025e-8 1.8213165716828143e-8 L -4.683306593159874e-8 2.1968481861040344e-8 L -4.175319745115239e-8 2.500489938017382e-8 L -3.6710335309042486e-8 2.736525233379976e-8 L -3.1766233592569234e-8 2.909630345634075e-8 L -2.6974260290088483e-8 3.024768081917281e-8 L -2.237966204758464e-8 3.0870899130391176e-8 L -1.801990481208366e-8 3.101846876022921e-8 L -1.3925077186483527e-8 3.0743094077193934e-8 L -1.0118344012972732e-8 3.009696132894445e-8 L -6.616438478629816e-9 2.913111510302736e-8 L -3.4301818772576195e-9 2.7894921354014486e-8 L -5.650210476478597e-10 2.6435614081818345e-8 L 1.978425576550656e-9 2.4797921985929787e-8 L 4.203821441661472e-9 2.302377079569816e-8 L 6.118572081445468e-9 2.1152056480177966e-8 L 7.733298349070172e-9 1.9218484164291926e-8 L 9.061328072255467e-9 1.7255467312276207e-8 L 1.011821066900713e-8 1.5292081575309345e-8 L 1.0921258439629292e-8 1.3354067628345e-8 L 1.1489117474740682e-8 1.1463877331822876e-8 L 1.184137039370792e-8 9.640757637501244e-9 L 1.1998172456927292e-8 7.900866804669796e-9 L 1.1979921981276033e-8 6.257417694250676e-9 L 1.1806965432320471e-8 4.720843154914951e-9 L 1.1499337070079778e-8 3.2989787988917775e-9 L 1.1076532587032262e-8 1.9972587776750585e-9 " /><path class="mouse" fill="none" stroke="hsl(126, 100%, 50%)" stroke-width="0.25" d="M -0.587785252292473 -0.8090169943749475 L -0.6269118729526609 -0.7015094287055516 L -0.6533386694624482 -0.5971689348126141 L -0.6681785259019312 -0.4969974123847989 L -0.672568152564045 -0.4018271101711193 L -0.6676504709936242 -0.3123292199982848 L -0.654558941089363 -0.22902359166430758 L -0.6344038123305762 -0.1522893128017692 L -0.6082602580667111 -0.08237591587773277 L -0.5771583318772217 -0.01941499360777356 L -0.5420746681667126 0.036567976160251627 L -0.503925835270976 0.08564177492682584 L -0.46356323825622214 0.12795771607893056 L -0.42176946012049166 0.16373818427432185 L -0.37925592406287906 0.19326556102572437 L -0.3366617556727765 0.21687163707416524 L -0.2945537221016381 0.23492759421491577 L -0.25342712530472966 0.24783462229085024 L -0.21370752807120255 0.25601522120607323 L -0.17575319459179778 0.2599052231201957 L -0.13985813154405588 0.25994655651862825 L -0.10625562091191176 0.25658076165195637 L -0.07512214181584007 0.2502432559125342 L -0.04658158533752636 0.2413583380651516 L -0.02070967351708047 0.2303349118510153 L 0.0024614987689305125 0.21756290230625136 L 0.022938872611053936 0.20341033213154516 L 0.040763850310245944 0.188221020562191 L 0.05600779505045728 0.17231286335336266 L 0.06876765535486012 0.15597664964308466 L 0.0791617572627974 0.139475369509705 L 0.08732580003726614 0.12304396492296198 L 0.09340908443545207 0.10688947641753012 L 0.09757099619601779 0.09119153811420036 L 0.09997776145423413 0.07610317459616897 L 0.10079948531730601 0.06175185453740855 L 0.10020747983581091 0.04824075780033184 L 0.09837188310303373 0.03565021489763024 L 0.0954595672045529 0.02403928017871599 L 0.09163232922136241 0.013447402789279948 L 0.0870453564508378 0.0038961623023522707 L 0.08184595443560054 -0.004608961124966962 L 0.0761725242611191 -0.01207680920410624 L 0.0701537738754531 -0.018528784691794822 L 0.06390814687280098 -0.02399712841697798 L 0.05754345123816884 -0.028523252361776684 L 0.0511566699436966 -0.03215614417570496 L 0.04483393498712548 -0.03495085580083557 L 0.03865064643826204 -0.03696708632845999 L 0.03267171827877521 -0.038267866811907546 L 0.026951933253339482 -0.038918352538406226 L 0.021536389565859952 -0.03898472622426713 L 0.016461023024195602 -0.03853321374789616 L 0.011753189132680296 -0.0376292123767035 L 0.007432290627601486 -0.036336529976620735 L 0.003510437022117794 -0.03471673241390554 L -0.000006876148812720671 -0.0328285952633231 L -0.0031200795368355673 -0.03072765501791042 L -0.005834843626001373 -0.028465854245083886 L -0.008161402634389362 -0.02609127454231701 L -0.01011389634280282 -0.023647950702482066 L -0.011709736405977294 -0.021175759192971395 L -0.012969002628298887 -0.018710373872140827 L -0.013913873664136236 -0.016283281799408647 L -0.01456809563999954 -0.013921852029355964 L -0.014956491297678978 -0.011649450403336778 L -0.015104511428590825 -0.009485593552565773 L -0.015037829612680638 -0.00744613559290639 L -0.014781980592030071 -0.005543481312588536 L -0.014362042000266768 -0.003786820019353597 L -0.01380235863343882 -0.0021823746131891817 L -0.013126307984739738 -0.0007336608756950912 L -0.01235610537213129 0.0005582475912419351 L -0.011512646661624973 0.0016944528940994982 L -0.01061538632631691 0.0026779685075309623 L -0.009682248378355763 0.003513460280426828 L -0.008729567563651447 0.004206995564035441 L -0.007772058112852769 0.00476580281279847 L -0.0068228072923261504 0.005198043601471211 L -0.005893290990867659 0.0055125986163336825 L -0.004993408606980366 0.005718868816455919 L -0.004131534563106297 0.005826592625047886 L -0.0033145838626829063 0.005845679702322162 L -0.0025480892189194623 0.005786061570925527 L -0.0018362874165751362 0.00565755911328112 L -0.0011822127158112059 0.005469766737128531 L -0.0005877952666808648 0.005231952810782709 L -0.00005396267058007347 0.004952975802453665 L 0.00041925700213383524 0.004641215417397007 L 0.0008326322539938215 0.004304517911484035 L 0.0011876266025093946 0.003950154668580489 L 0.0014862995909161643 0.003584793060344099 L 0.0017312113681839877 0.0032144785590176982 L 0.0019253316772274104 0.0028446270447525426 L 0.0020719539361980246 0.0024800262371443486 L 0.0021746149524067993 0.0021248451841829647 L 0.0022370206727245013 0.0017826507588939154 L 0.0022629782489098286 0.00145643014280539 L 0.002256334581675848 0.001148618314276917 L 0.002220921403690347 0.0008611296070127719 L 0.0021605068692046804 0.0005953924581720843 L 0.0020787535365527376 0.0003523865248893544 L 0.0019791825591538126 0.00013268141134592575 L 0.0018651438405689147 -0.00006352368549487044 L 0.0017397918591769835 -0.00023636003592601793 L 0.0016060668276495396 -0.00038624969987013653 L 0.001466680821035963 -0.0005138666007857359 L 0.001324108484301141 -0.0006200987742754551 L 0.0011805819149188859 -0.0007060121505821909 L 0.0010380893079296161 -0.0007728161688240572 L 0.0008983769490175152 -0.000821831462630956 L 0.000762954144946551 -0.0008544598022043328 L 0.0006331006894192815 -0.0008721564270351967 L 0.000509876475405607 -0.0008764048568056554 L 0.0003941328815714476 -0.0008686942255091733 L 0.00028652557998920194 -0.000850499145625914 L 0.00018752843423583453 -0.0008232620752889535 L 0.00009744818072110211 -0.0007883781317248477 L 0.000016439611118870118 -0.0007471822687481084 L -0.000055479000377538585 -0.0007009387145909309 L -0.00011841045502170963 -0.0006508325486782522 L -0.00017256337651695364 -0.0005979632819056412 L -0.00021823732498466614 -0.0005433402943118737 L -0.0002558084305861888 -0.0004878799765098989 L -0.00028571567514584654 -0.0004324044165873926 L -0.00030844792689851025 -0.0003776414721418058 L -0.00032453181155245986 -0.00032422606740216376 L -0.0003345204823561915 -0.00027270255773904326 L -0.0003389833328901625 -0.00022352800800756503 L -0.0003384966789433012 -0.0001770762368455621 L -0.0003336354201221342 -0.00013364248600981096 L -0.00032496567779381205 -0.00009344858183882559 L -0.00031303839357570384 -0.000056648464756396444 L -0.0002983838618252866 -0.000023333972166102067 L -0.000281507160408405 0.000006459230060191404 L -0.00026288443636985536 0.000032745662204127286 L -0.00024295999692306255 0.000055584075964281295 L -0.0002221441513304107 0.00007507160478170081 L -0.00020081174566953378 0.00009133808372453132 L -0.00017930133007461536 0.00010454059380087029 L -0.00015791489670259387 0.00011485827632889964 L -0.00013691812629707214 0.0001224874542174027 L -0.00011654108170211615 0.0001276370887595228 L -0.000096979287909344 0.00013052459286566834 L -0.00007839514010227575 0.0001313720145924449 L -0.0000609195835926349 0.0001304025983860896 L -0.00004465401242915544 0.0001278377256629357 L -0.000029672336710400792 0.00012389423119800607 L -0.00001602317216465514 0.00011878208727931998 L -0.0000037321092936488136 0.00011270244369569725 L 0.00000719597675936182 0.00010584600833902721 L 0.000016774610528334772 0.00009839175049189605 L 0.000025033425707157303 0.00009050590670735696 L 0.00003201592688590147 0.00008234126753509651 L 0.00003777732683458125 0.00007403672217016477 L 0.00004238247896386352 0.00006571703735771698 L 0.00004590392109167903 0.00005749284653957484 L 0.00004842004333515423 0.000049460825235023366 L 0.00005001338985012124 0.00004170402896833826 L 0.000050769101271806094 0.00003429237064889155 L 0.00005077350208144462 0.000027283215137154266 L 0.00005011283474139274 0.000020722069753780655 L 0.000048872140308630995 0.000014643350673259784 L 0.00004713428335266386 0.000009071206454426193 L 0.00004497911736476607 0.000004020381365745062 L 0.000042482785444659 -5.02897365561028e-7 L 0.0000397171498789872 -0.000004500022741579261 L 0.0000367493432724219 -0.000007979114455573579 L 0.00003364143314426571 -0.00001095413994691742 L 0.000030450191347245176 -0.000013444059877153818 L 0.000027226959286007085 -0.000015472006406691597 L 0.000024017599695311595 -0.00001706450125980556 L 0.000020862525666317818 -0.000018250719242183044 L 0.000017796797667862237 -0.000019061801629712334 L 0.000014850279482526325 -0.000019530222686897196 L 0.000012047844249174498 -0.00001968921150360281 L 0.000009409622159588125 -0.000019572230363381624 L 0.000006951281782511106 -0.000019212509977337793 L 0.000004684337470274454 -0.000018642641134828437 L 0.0000026164758284233456 -0.000017894221635413698 L 7.518947855697732e-7 -0.00001699755677334441 L -9.083506218740595e-7 -0.000015981411143509668 L -0.0000023660010472897945 -0.00001487280912230689 L -0.000003625248921068969 -0.000013696881043799256 L -0.000004692401950980282 -0.00001247675183568934 L -0.00000557555758853487 -0.000011233468695536604 L -0.000006284291462563571 -0.000009985964269450458 L -0.0000068293622536690344 -0.000008751051737176185 L -0.000007222434983884889 -0.000007543448202943424 L -0.000007475824228058098 -0.000006375822834549343 L -0.000007602258319672288 -0.000005258866277863819 L -0.000007614665225819591 -0.000004201377994383038 L -0.000007525980404905122 -0.000003210368319941117 L -0.000007348976636921093 -0.0000022911722177959146 L -0.00000709611552970112 -0.0000014475718939148967 L -0.00000677942015492136 -6.819256516121788e-7 L -0.0000064103680537964444 4.6994177013074255e-9 L -0.0000059998036731080744 6.12393085052186e-7 L -0.000005557869145785812 0.0000011422679247227348 L -0.0000050939522148712635 0.0000015963272666786541 L -0.0000046166500132845675 0.000001977336657881083 L -0.000004133747352178474 0.0000022887001118444883 L -0.000003652208135514948 0.0000025343422161746233 L -0.0000031781785054799307 0.0000027185969682708842 L -0.0000027170003300918782 0.0000028461040213593934 L -0.00000227323366850122 0.0000029217128476732942 L -0.0000018506868887059344 0.000002950395163755032 L -0.0000014524531644767948 0.00000293716581508851 L -0.0000010809521410380115 0.000002887012183894309 L -7.379756304363967e-7 0.000002804832065031178 L -4.2473627562862075e-7 0.000002695379850434071 L -1.4191820532870693e-7 0.0000025632207720996304 L 1.1027121206455242e-7 0.0000024126928768688027 L 3.320493191024079e-7 0.000002247876342589076 L 5.240065396810792e-7 0.0000020725696939949075 L 6.870557967486006e-7 0.0000018902724370679973 L 8.223835190829848e-7 0.0000017041736019069842 L 9.314026958723689e-7 0.0000015171456653793077 L 0.0000010157083583320309 0.000001331743315146052 L 0.0000010770357922650341 0.000001150206515127893 L 0.000001117221714820008 9.744673381995326e-7 L 0.0000011381685831089753 8.061600439544989e-7 L 0.0000011418121420971738 6.466338968864396e-7 L 0.000001130092264440751 4.969682424319477e-7 L 0.0000011049270858099972 3.579893841964927e-7 L 0.0000010681903956955765 2.3028883456660232e-7 L 0.00000102169220567988 1.142425420748249e-7 L 9.671623845281244e-7 1.0030731659223875e-8 L 9.062372220223146e-7 -8.234197226793149e-8 L 8.404487609878978e-7 -1.6302643581364692e-7 L 7.71216719172455e-7 -2.3230918037468781e-7 L 6.998428092230876e-7 -2.9059305024126575e-7 L 6.275072556469395e-7 -3.38378578312747e-7 L 5.552673019848319e-7 -3.7624621363587533e-7 L 4.84057499129405e-7 -4.0483954439103155e-7 L 4.14691566421044e-7 -4.2484962157382946e-7 L 3.4786562050340534e-7 -4.370004621232634e-7 L 2.841625725676876e-7 -4.4203578576427853e-7 L 2.240575022229632e-7 -4.4070701745129705e-7 L 1.6792382547406845e-7 -4.337625670713969e-7 L 1.160400848598348e-7 -4.219383800088933e-7 L 6.859720141202494e-8 -4.059497362740037e-7 L 2.570604046824801e-8 -3.8648426211731566e-7 L -1.2594843739482525e-8 -3.641961063259959e-7 L -4.633140662292817e-8 -3.397012236444946e-7 L -7.558636354687954e-8 -3.1357369988297197e-7 L -1.004915873966609e-7 -2.8634304715872577e-7 L -1.2122073599539904e-7 -2.5849239323726e-7 L -1.3798217946716052e-7 -2.3045748597061846e-7 L -1.5101228566447914e-7 -2.026264322366783e-7 L -1.6056911041632878e-7 -1.7534009042716037e-7 L -1.6692652868331416e-7 -1.4889303627662882e-7 L -1.703688327907744e-7 -1.2353502353356628e-7 L -1.7118581479089602e-7 -9.947286351459635e-8 L -1.696683417096874e-7 -7.687265082535973e-8 L -1.6610442497766088e-7 -5.586226635331006e-8 L -1.607757787256182e-7 -3.653409292221131e-8 L -1.5395485583922043e-7 -1.8947883636157594e-8 L -1.4590234568848703e-7 -3.133727831184472e-9 L -1.3686511325310135e-7 1.0904935397980392e-8 L -1.2707455591645314e-7 2.3188301004150073e-8 L -1.1674535146001494e-7 3.3757218911508234e-8 L -1.0607456870963654e-7 4.267028678592531e-8 L -9.524111081791917e-8 5.0001044451098884e-8 L -8.440546026083357e-8 5.583529499650573e-8 L -7.370969422954621e-8 6.026857308798049e-8 L -6.327773915677105e-8 6.340377670903839e-8 L -5.321583357777787e-8 6.534897455789343e-8 L -4.361316933720216e-8 6.621539762177443e-8 L -3.4542682263175676e-8 6.611562006064525e-8 L -2.60619647911093e-8 6.516193146510308e-8 L -1.821427458413458e-8 6.346489981120448e-8 L -1.1029614921849127e-8 6.113212201677354e-8 L -4.525864472667324e-9 5.8267156903835544e-8 L 1.2900640100515824e-9 5.496863358111803e-8 L 6.4210545563634526e-9 5.1329526766988974e-8 L 1.087862491376715e-8 4.743658936217832e-8 L 1.4681784073263188e-8 4.336993163655011e-8 L 1.7855922975696064e-8 3.9202735696879094e-8 L 2.0431749106381545e-8 3.500109343370592e-8 L 2.2444273881590998e-8 3.082395588479624e-8 L 2.393186001676656e-8 2.6723181879991292e-8 L 2.493533445538158e-8 2.2743673926689894e-8 L 2.5497170938424984e-8 1.892358953640369e-8 L 2.5660744914327232e-8 1.529461656076486e-8 L 2.546966223218079e-8 1.1882301580665583e-8 L 2.4967161929640877e-8 8.706420956317198e-9 L 2.4195592421316298e-8 5.7813847813502685e-9 L 2.3195959512477133e-8 3.1166646741372044e-9 L 2.200754390373481e-8 7.172370689885979e-10 L 2.0667585210935738e-8 -1.4159655753217384e-9 L 1.9211028995720977e-8 -3.285602464899318e-9 L 1.767033288002581e-8 -4.897477104726445e-9 L 1.6075327495504456e-8 -6.260100164812059e-9 L 1.4453127789210888e-8 -7.3842671247113285e-9 L 1.2828090062212292e-8 -8.282654526995782e-9 L 1.122181005028661e-8 -8.969437986682901e-9 L 9.65315735748447e-9 -9.459934457390978e-9 L 8.138341616153462e-9 -9.770270650241337e-9 L 6.6910058631789405e-9 -9.917078941434227e-9 L 5.322342784042623e-9 -9.917221591179202e-9 " /><path class="mouse" fill="none" stroke="hsl(198, 100%, 50%)" stroke-width="0.25" d="M -0.9510565162951536 0.30901699437494723 L -0.8609015361307055 0.37945028673015135 L -0.7698341587287855 0.43682664956998374 L -0.6791511474104903 0.4818948945202447 L -0.5899952805699458 0.5154789183051778 L -0.503358081748219 0.5384582942266729 L -0.42008421585434336 0.5517503642852345 L -0.3408773026086364 0.5562938939620532 L -0.26630690832680404 0.5530343241042969 L -0.1968164891796592 0.5429106294953894 L -0.13273207266874132 0.5268437715619007 L -0.0742714788920812 0.5057267132447633 L -0.021553898901543293 0.4804159472882569 L 0.025390336234851926 0.45172447499074475 L 0.06660994543614969 0.4204161607078984 L 0.10222297977998819 0.38720137797379395 L 0.13240731344983755 0.35273385586378525 L 0.1573914439385105 0.3176086290093804 L 0.17744568639891845 0.2823609913247847 L 0.1928738321230553 0.2474663518471724 L 0.20400532701688764 0.21334089095534303 L 0.21118801271542398 0.18034291644138362 L 0.21478146071959192 0.14877482129669548 L 0.2151509186848085 0.11888554847083886 L 0.2126618777814432 0.09087347210858376 L 0.20767526089367874 0.06488960971412425 L 0.20054322332408514 0.041041085186892604 L 0.1916055506114183 0.019394768585473808 L 0.18118663202175223 -0.000018975320463722467 L 0.1695929832009129 -0.017202491270198836 L 0.15711128733366808 -0.03218704561093447 L 0.1440069208896789 -0.045029094949659385 L 0.1305229275898282 -0.05580665370064394 L 0.11687940253715091 -0.06461579671315375 L 0.10327324745935716 -0.07156732723955188 L 0.08987825763840837 -0.07678363486399266 L 0.07684550128977227 -0.0803957626975349 L 0.06430395283321695 -0.08254069818887874 L 0.052361342602897 -0.08335889732484117 L 0.041105187013551404 -0.08299204781718704 L 0.030603964970929508 -0.08158107310153387 L 0.02090840833018732 -0.07926437561240245 L 0.01205287641150528 -0.07617631484308066 L 0.004056786926890894 -0.07244591314182541 L -0.0030739218906328304 -0.06819578002476935 L -0.009345320677018537 -0.0635412439848073 L -0.01477403006899829 -0.058589679325776946 L -0.019385791323753593 -0.0534400144310654 L -0.023214081748126822 -0.04818240706214913 L -0.026298787912607535 -0.04289807175094513 L -0.028684947378582074 -0.037659244074783466 L -0.03042156753824176 -0.0325292665584353 L -0.031560528169456877 -0.027562781108028074 L -0.03215557245381692 -0.022806013221230482 L -0.03226138950275681 -0.01829713371177032 L -0.03193278988920264 -0.014066684309993294 L -0.031223974292838613 -0.010138054231688395 L -0.030187894135936866 -0.0065279956229583255 L -0.028875702011649837 -0.0032471666690593193 L -0.027336288783879205 -0.0003006920809339548 L -0.02561590346189481 0.0023112683727484038 L -0.023757851317070436 0.004592951653583609 L -0.021802265205655823 0.0065524309618921195 L -0.019785944681801976 0.008201069414970742 L -0.017742257219855326 0.009552993418188233 L -0.015701095704554458 0.010624590359810195 L -0.01368888628226015 0.011434034410139666 L -0.011728640685684046 0.012000843403447894 L -0.009840047238755674 0.01234546903220889 L -0.00803959490745237 0.012488921891038856 L -0.006340724977061055 0.012452432275006744 L -0.00475400519726477 0.012257147065086037 L -0.0032873215349194353 0.011923862522957646 L -0.0019460830021876113 0.011472792367786628 L -0.0007334353771668366 0.010923370117862144 L 0.00034952000177292716 0.010294084348336684 L 0.0013035058144881093 0.00960234524039648 L 0.0021308497823485702 0.008864380574247889 L 0.0028352698364914244 0.008095159145149433 L 0.003421665766808918 0.007308339454903133 L 0.0038959193343124903 0.006516241447078798 L 0.004264704491001759 0.005729839008980422 L 0.004535309030217831 0.004958770953101565 L 0.004715468688883997 0.00421136821167057 L 0.004813214442732456 0.0034946950260092945 L 0.004836733477808749 0.002814601984058753 L 0.004794244087026101 0.0021757888509239074 L 0.004693884529704679 0.001581875245177935 L 0.004543615704915007 0.0010354773346489276 L 0.004351137325774909 0.0005382888564015697 L 0.004123817141074384 0.00009116490375886773 L 0.003868632631935532 -0.00030579293414394366 L 0.003592124513668798 -0.0006531513500052761 L 0.003300361295413026 -0.0009520611381694937 L 0.002998914091266342 -0.001204175038711174 L 0.0026928408350511564 -0.0014115684485910677 L 0.0023866790251645107 -0.0015766637083479958 L 0.002084446114657748 -0.001702158544613099 L 0.0017896466632627448 -0.0017909591276830505 L 0.0015052853810355652 -0.0018461180902327244 L 0.001233885216145612 -0.0018707777485597102 L 0.0009775096706624478 -0.0018681186719305429 L 0.0007377885666008117 -0.0018413136588774145 L 0.0005159465286605752 -0.0017934871017640862 L 0.00031283349880168083 -0.0017276796525597497 L 0.0001289566498670303 -0.0016468180433736816 L -0.00003548688015979741 -0.001553689864655864 L -0.00018057695597619962 -0.0014509230617184958 L -0.00030663758143309016 -0.0013409698759689248 L -0.00041420461542919214 -0.001226094930497166 L -0.0005039944232304159 -0.001108367139917458 L -0.0005768737660814037 -0.0009896551110772154 L -0.0006338311809794651 -0.0008716256938503774 L -0.000675950054045403 -0.0007557453391458038 L -0.000704383545390921 -0.0006432839239024347 L -0.0007203314810111804 -0.0005353207096337652 L -0.0007250192882148289 -0.00043275211145929736 L -0.0007196790155677695 -0.0003363009679724663 L -0.0007055324463364349 -0.00024652701821875985 L -0.0006837762859828431 -0.00016383830999733466 L -0.000655569379350809 -0.00008850328318807439 L -0.0006220218917120532 -0.00002066329241072308 L -0.0005841863696982201 0.000039654645354430076 L -0.0005430505831851781 0.00009252507087541726 L -0.0004995320372496182 0.00013811144148683283 L -0.0004544740341951162 0.00017665377814196317 L -0.00040864315914057353 0.0002084567292754071 L -0.0003627280585626364 0.00023387815982816936 L -0.00031733937926298634 0.0002533183544675166 L -0.0002730107352659524 0.00026720990576804853 L -0.00023020057191667557 0.00027600834102647464 L -0.00018929479972321363 0.00028018352554963656 L -0.00015061007505140928 0.0002802118657457589 L -0.00011439761043085706 0.0002765693222006496 L -0.00008084740376543324 0.00026972523114933097 L -0.000050092782975325994 0.00026013692235526205 L -0.00002221517035443312 0.0002482451123623158 L 0.0000027510209542775193 0.00023447004435218476 L 0.000024813437630145624 0.00021920833937213308 L 0.00004401685484459787 0.0002028305184343643 L 0.000060438325406966936 0.00018567915085931772 L 0.00007418246363409779 0.00016806758116465014 L 0.00008537691019689721 0.0001502791847081157 L 0.00009416801651530087 0.00013256710109120414 L 0.00010071677996896176 0.00011515439393447616 L 0.00010519505431654417 0.0000982345859577118 L 0.00010778205331245117 0.00008197251925155884 L 0.00010866115960591561 0.0000665054921273296 L 0.00010801704562346595 0.00005194462589554891 L 0.00010603310828258138 0.00003837641727280294 L 0.00010288921506443596 0.00002586443477540873 L 0.00009875975518228394 0.000014451120357005896 L 0.0000938119863081703 0.000004159660619900806 L 0.00008820466454766834 -0.000005004104883350282 L 0.00008208694305901426 -0.000013049767495846326 L 0.00007559752287424413 -0.000020000451431820207 L 0.00006886403806759812 -0.000025890956642023713 L 0.00006200265640004156 -0.000030765962179764 L 0.00005511787591608964 -0.00003467830663384936 L 0.00004830249764697051 -0.00003768735928309088 L 0.00004163775454877396 -0.0000398574928711182 L 0.00003519357704185207 -0.000041256666318285614 L 0.000029028975985045227 -0.00004195512329318861 L 0.000023192524582800593 -0.000042024210369554875 L 0.00001772292155358404 -0.00004153531650108479 L 0.000012649618854242357 -0.00004055893375989966 L 0.000007993498328891122 -0.000039163837703306825 L 0.0000037675828060614046 -0.00003741638435564236 L -2.2231620215651526e-8 -0.00003537991961172361 L -0.0000033764341433591693 -0.00003311429587866968 L -0.0000063011593887110015 -0.00003067548996460857 L -0.00000880745865051668 -0.000028115315585810103 L -0.000010910590485873412 -0.00002548122338672974 L -0.000012629337727439263 -0.000022816181038194787 L -0.000013985356819748438 -0.00002015862578484207 L -0.000015002564282635226 -0.000017542481740945254 L -0.00001570656406756183 -0.000014997234270860587 L -0.000016124118604845573 -0.000012548053923459315 L -0.00001628266544652625 -0.000010215962606328214 L -0.0000162098805940336 -0.000008018034972808151 L -0.00001593328886366084 -0.000005967628341203542 L -0.000015479920986634794 -0.000004074634859426186 L -0.00001487601656370327 -0.0000023457500593040474 L -0.000014146771495072452 -7.847524028939842e-7 L -0.000013316128082818803 6.07211100726524e-7 L -0.000012406605651459073 0.000001831337643852686 L -0.000011439169249486879 0.000002890883681285401 L -0.000010433133776201888 0.0000037908857680477833 L -0.00000940610071953084 0.000004537890164042695 L -0.000008373924586969486 0.000005139693737769835 L -0.000007350706058292284 0.000005605098262475745 L -0.000006348808880229263 0.000005943679782362178 L -0.000005378897554834085 0.0000061655743365275634 L -0.000004449992939760339 0.000006281280966303659 L -0.0000035695429752371773 0.000006301482599103965 L -0.0000027435058744714103 0.000006236885099790021 L -0.0000019764432569918464 0.000006098074509344518 L -0.0000012716208638287813 0.00000589539225031764 L -6.311146653956367e-7 0.000005638827868681906 L -5.592035381292526e-8 0.000005337928701635083 L 4.5393560220264134e-7 0.000005001725709472058 L 8.992849729413548e-7 0.000004638674585592833 L 0.0000012817082983479944 0.00000425661116050538 L 0.0000016034281925055624 0.0000038627200416357055 L 0.0000018672064998487012 0.000003463515379066828 L 0.0000020762462067724973 0.0000030648326161022466 L 0.000002234098846259606 0.000002671830070845718 L 0.000002344577976523983 0.0000022889991988466605 L 0.000002411679168431127 0.000001920182405326285 L 0.0000024395068013237374 0.0000015685973066540044 L 0.000002432207843350853 0.0000012368663827215192 L 0.0000023939126807523066 9.270510128705124e-7 L 0.000002328682960884852 6.406889463641766e-7 L 0.0000022404663260199214 3.7883432244782226e-7 L 0.0000021330578388763463 1.4209942332407428e-7 L 0.0000020100678361273347 -6.930258550540839e-8 L 0.0000018748958922838786 -2.5551460036502244e-7 L 0.0000017307105328606667 -4.169928096616125e-7 L 0.000001580434301956951 -5.544647363235678e-7 L 0.0000014267337646590006 -6.688885483032507e-7 L 0.0000012720140082770442 -7.614140240608024e-7 L 0.0000011184171976255088 -8.333454938419639e-7 L 9.678247375843182e-7 -8.861070148513661e-7 L 8.218626002819505e-7 -9.212099795367124e-7 L 6.819093836664621e-7 -9.402233014697677e-7 L 5.491066822440258e-7 -9.447462729759729e-7 L 4.243713686552878e-7 -9.363841428797633e-7 L 3.0840940584848244e-7 -9.167264215739612e-7 L 2.017308332513941e-7 -8.8732788409631e-7 L 1.0466559593904028e-7 -8.49692209950134e-7 L 1.737991278118745e-8 -8.052581709314227e-7 L -6.010709257967515e-8 -7.553882550673081e-7 L -1.279067457892248e-7 -7.013595957381483e-7 L -1.862443804744375e-7 -6.443570599225651e-7 L -2.354432932601409e-7 -5.854683380219298e-7 L -2.759092595939751e-7 -5.256808696189756e-7 L -3.081157486307217e-7 -4.658804345221182e-7 L -3.325899503967954e-7 -4.06851236252228e-7 L -3.4989970481872173e-7 -3.492773054481863e-7 L -3.606414001049999e-7 -2.937450532085468e-7 L -3.654288875308649e-7 -2.407468088606159e-7 L -3.648834409676117e-7 -1.9068518277464306e-7 L -3.596247725682286e-7 -1.4387810234960264e-7 L -3.5026310088647994e-7 -1.0056437793116603e-7 L -3.3739225435914827e-7 -6.090966493964539e-8 L -3.2158378149031524e-7 -2.5012698659927833e-8 L -3.033820291922567e-7 7.088311231924454e-9 L -2.8330014249311054e-7 3.540922845020668e-8 L -2.6181693213648135e-7 6.001357126766968e-8 L -2.393745513809499e-7 8.100620724981056e-8 L -2.1637691945774667e-7 9.852723103862582e-8 L -1.9318882655593197e-7 1.127460842919379e-7 L -1.7013565376536954e-7 1.2385596692560322e-7 L -1.4750364100533818e-7 1.320685793477586e-7 L -1.2554063648699392e-7 1.3760922648304777e-7 L -1.0445726258826166e-7 1.40712306111748e-7 L -8.442843504964918e-8 1.416171964311593e-7 L -6.55951750220098e-8 1.405645508089413e-7 L -4.8066656610040096e-8 1.377930014529955e-7 L -3.192243606122912e-8 1.3353626817217862e-7 L -1.7214812558029063e-8 1.2802066353943712e-7 L -3.9712745966446075e-9 1.214629815785358e-7 L 7.803009898640918e-9 1.1406875355504243e-7 L 1.8122697341861226e-8 1.0603085153331006e-7 L 2.7019799508007168e-8 9.752841803068004e-8 L 3.4541270996969344e-8 8.872609832092299e-8 L 4.074667823272267e-8 7.977355067100587e-8 L 4.570597114205523e-8 7.080520899648673e-8 L 4.949737488443292e-8 6.194027204776136e-8 L 5.220541543786431e-8 5.328289324800217e-8 L 5.3919089507909556e-8 4.492254564998193e-8 L 5.473018613564623e-8 3.693453711973672e-8 L 5.473176454762155e-8 2.938065174798807e-8 L 5.4016790223965675e-8 2.2309894594757437e-8 L 5.26769288629644e-8 1.5759318149909533e-8 L 5.080149589067181e-8 9.754910305889468e-9 L 4.847655739834871e-8 4.312525154522288e-9 L 4.578417688143655e-8 -5.611604941392896e-10 L 4.280180089168377e-8 -4.86768034516273e-9 L 3.9601775687080414e-8 -8.615815435189196e-9 L 3.6250986158860864e-8 -1.182064672730267e-8 L 3.2810607716095046e-8 -1.4502634072277828e-8 L 2.9335961400404246e-8 -1.6686730562869126e-8 L 2.5876462269537476e-8 -1.8401539807695364e-8 L 2.2475651011980566e-8 -1.967852222496398e-8 L 1.9171298818383804e-8 -2.055125511395909e-8 L 1.5995575722450663e-8 -2.105475001180883e-8 L 1.2975272917427873e-8 -2.1224829690359296e-8 L 1.0132069938384858e-8 -2.109756609687722e-8 L 7.482838059640504e-9 -2.0708779594870378e-8 L 5.039971776348357e-9 -2.0093599018046152e-8 L 2.8117408056386593e-9 -1.928608131039702e-8 L 8.026556430556393e-10 -1.8318888886434452e-8 L -9.861596674366502e-10 -1.722302230444467e-8 L -2.55659325757443e-9 -1.6027605398157326e-8 L -3.913174724824573e-9 -1.4759719653499732e-8 L -5.062712430860531e-9 -1.3444284341653807e-8 L -6.013942635902004e-9 -1.2103978721481912e-8 L -6.777193701779364e-9 -1.075920249725484e-8 L -7.364068028006866e-9 -9.428070655007171e-9 L -7.787143847009731e-9 -8.126438796169461e-9 " /></g></svg>