<svg viewBox="-1 -1 2 2" xmlns="http://www.w3.org/2000/svg">

    <linearGradient id="hslGradientUpper">
        <stop offset="0%" stop-color="hsl(180, 100%, 50%)"></stop>
        <stop offset="33%" stop-color="hsl(120, 100%, 50%)"></stop>
        <stop offset="67%" stop-color="hsl( 60, 100%, 50%)"></stop>
        <stop offset="100%" stop-color="hsl(  0, 100%, 50%)"></stop>
    </linearGradient>
    <linearGradient id="hslGradientLower">
        <stop offset="0%" stop-color="hsl(180, 100%, 50%)"></stop>
        <stop offset="33%" stop-color="hsl(240, 100%, 50%)"></stop>
        <stop offset="67%" stop-color="hsl(300, 100%, 50%)"></stop>
        <stop offset="100%" stop-color="hsl(360, 100%, 50%)"></stop>
    </linearGradient>
    <path d="M -1 0 a 1 1 0 1 0 2 0" cy="0" r="1" stroke="url(#hslGradientLower)" stroke-width="0.025" fill="none"></path>
    <path d="M 1 0 a 1 1 0 1 0 -2 0" cy="0" r="1" stroke="url(#hslGradientUpper)" stroke-width="0.025" fill="none"></path>
    <path d="M 0 1 L 0.04793115406595578 0.8425329099625654 L 0.08709133676969394 0.7121590999000826 L 0.11900303005454736 0.6041918670756561 L 0.1449252170516766 0.5147554845108281 L 0.16589897861256156 0.4406448691906443 L 0.1827851997733465 0.37920953340253083 L 0.19629575145531072 0.3282576172344937 L 0.2070192764523023 0.285976527371453 L 0.2154425133840375 0.2508673086215175 L 0.22196793072956175 0.22169037184873117 L 0.22692830944784187 0.19742061318989468 L 0.23059880220465884 0.17721029947954736 L 0.23320690585607629 0.16035837601173708 L 0.23494070828041735 0.14628508531187254 L 0.23595570816702172 0.13451097789688754 L 0.23638045469861954 0.12463955503027019 L 0.23632121133399545 0.11634291498843306 L 0.23586581256151481 0.10934988310823492 L 0.23508685327257492 0.10343619582002536 L 0.23404432623904756 0.09841638324279224 L 0.23278780319531733 0.09413705642076742 L 0.2313582385000112 0.09047135614112953 L 0.2297894606865964 0.08731436233181765 L 0.2281094059108663 0.08457929781985428 L 0.2263411379577392 0.08219438899335968 L 0.22450369174136967 0.08010026969608654 L 0.22261277084148098 0.07824783435306153 L 0.2206813243336545 0.07659646259200606 L 0.21872002380069214 0.0751125510765972 L 0.21673765779784196 0.07376829939137776 L 0.21474145805577893 0.07254070601701001 L 0.21273736923353465 0.07141073804166995 L 0.21073027198957772 0.07036264454514132 L 0.20872416744894823 0.06938338879437277 L 0.20672232974654137 0.06846217869127083 L 0.20472743217070583 0.06759007847108835 L 0.20274165147541603 0.06675968759174582 L 0.20076675413878103 0.06596487518731986 L 0.19880416769194548 0.0652005604708378 L 0.1968550397018483 0.06446253113528194 L 0.19492028654425958 0.0637472931775707 L 0.19300063373382703 0.06305194670806859 L 0.19109664927214756 0.0623740832490768 L 0.18920877122206242 0.06171170080384321 L 0.18733733050730744 0.061063133621076064 L 0.18548256976375832 0.06042699411204881 L 0.18364465892553766 0.05980212481741139 L 0.18182370811101686 0.059187558684708014 L 0.18001977827597215 0.05858248621851968 L 0.17823289002029835 0.057986228313996094 L 0.1764630308678206 0.057398213790328306 L 0.17471016128344988 0.05681796081088978 L 0.1729742196462028 0.05624506151750299 L 0.17125512635879336 0.05567916932266592 L 0.16955278724323314 0.05511998839981218 L 0.16786709634601846 0.05456726499126424 L 0.1661979382550984 0.05402078021935394 L 0.16454519001313345 0.0534803441406098 L 0.1629087226969302 0.052945790827918886 L 0.1612884027208455 0.05241697430279044 L 0.1596840929119508 0.05189376517062781 L 0.15809565339647919 0.05137604783736819 L 0.1565229423302368 0.050863718206898376 L 0.15496581650000604 0.0503566817760613 L 0.1534241318182898 0.04985485205846223 L 0.15189774372987913 0.049358149280187336 L 0.15038650754552826 0.048866499300390845 L 0.148890278715375 0.0483798327178477 L 0.14740891305255868 0.04789808413130009 L 0.14594226691567802 0.04742119152699331 L 0.14449019735723576 0.04694909577140003 L 0.14305256224398002 0.04648174019093887 L 0.14162922035402972 0.046019070223641594 L 0.1402200314548248 0.045561033130326604 L 0.1388248563652432 0.0451075777549893 L 0.1374435570046473 0.04465865432590048 L 0.13607599643114543 0.04421421429037597 L 0.1347220388709566 0.04377421017739859 L 0.13338154974044134 0.04333859548328009 L 0.13205439566208976 0.042907324576383514 L 0.13074044447553484 0.042480352617615014 L 0.12943956524447364 0.042057635493963456 L 0.12815162826022625 0.04163912976283712 L 0.12687650504253614 0.04122479260533603 L 0.1256140683381101 0.04081458178692083 L 0.1243641921173104 0.04040845562420498 L 0.12312675156933975 0.04000637295681755 L 0.12190162309620031 0.039608293123465865 L 0.12068868430565972 0.03921417594147802 L 0.11948781400341608 0.03882398168922958 L 0.11829889218462053 0.03843767109096196 L 0.11712180002488862 0.038055205303585096 L 0.1159564198709085 0.03767654590512741 L 0.11480263523073524 0.03730165488455435 L 0.11366033076384477 0.03693049463272501 L 0.11252939227100843 0.03656302793429605 L 0.1114097066840377 0.036199217960415093 L 0.11030116205544056 0.03583902826207325 L 0.10920364754802332 0.035482422764008474 L 0.10811705342446541 0.03512936575907067 L 0.10704127103689041 0.03477982190297434 L 0.10597619281645163 0.034433756209377664 L 0.10492171226294768 0.0340911340452373 L 0.10387772393448041 0.0337519211263969 L 0.10284412343716542 0.03341608351337457 L 0.10182080741490326 0.03308358760732053 L 0.10080767353921796 0.03275440014612098 L 0.09980462049916813 0.032428488200628415 L 0.09881154799133499 0.032105819171002054 L 0.09782835670989039 0.03178636078314454 L 0.09685494833674774 0.031470081085223776 L 0.09589122553179735 0.031156948444270322 L 0.09493709192322822 0.03084693154284259 L 0.09399245209793673 0.030539999375753274 L 0.0930572115920234 0.030236121246851513 L 0.09213127688137794 0.02993526676585628 L 0.09121455537235279 0.029637405845237122 L 0.09030695539252528 0.029342508697139075 L 0.08940838618154807 0.029050545830348995 L 0.08851875788208782 0.028761488047301064 L 0.08763798153085156 0.028475306441119497 L 0.08676596904970033 0.028191972392696826 L 0.08590263323684966 0.027911457567806303 L 0.08504788775815625 0.027633733914247248 L 0.08420164713849008 0.02735877365902227 L 0.08336382675319164 0.02708654930554543 L 0.0825343428196132 0.02681703363088057 L 0.08171311238874376 0.02655019968300908 L 0.08090005333691679 0.02628602077812646 L 0.08009508435759988 0.02602447049796714 L 0.07929812495326591 0.02576552268715703 L 0.07850909542734474 0.025509151450593313 L 0.07772791687625473 0.025255331150851067 L 0.07695451118151331 0.025004036405616343 L 0.07618880100192597 0.024755242085145294 L 0.07543070976585278 0.02450892330974899 L 0.07468016166355167 0.02426505544730365 L 0.07393708163959797 0.02402361411078592 L 0.07320139538537918 0.023784575155832932 L 0.0724730293316643 0.02354791467832681 L 0.07175191064124722 0.023313609012003425 L 0.07103796720166311 0.023081634726085046 L 0.07033112761797733 0.022851968622936664 L 0.06963132120564598 0.022624587735745733 L 0.06893847798344759 0.022399469326225094 L 0.06825252866648494 0.022176590882338778 L 0.06757340465925674 0.02195593011605054 L 0.06690103804879793 0.021737464961094796 L 0.06623536159788856 0.021521173570769804 L 0.06557630873832991 0.021307034315752822 L 0.06492381356428775 0.021095025781937036 L 0.06427781082570169 0.02088512676829002 L 0.06363823592176018 0.020677316284733526 L 0.06300502489444038 0.02047157355004441 L 0.0623781144221123 0.0202678779897764 L 0.061757441813206644 0.020066209234202624 L 0.061142944999945596 0.019866547116278548 L 0.06053456253213599 0.019668871669625228 L 0.05993223357102426 0.01947316312653265 L 0.059335897883212516 0.019279401915982892 L 0.058745495834635175 0.019087568661693 L 0.05816096838459549 0.018897644180177336 L 0.05758225707986144 0.01870960947882918 L 0.05700930404882038 0.01852344575402146 L 0.0564420519956918 0.018339134389226353 L 0.055880444194797735 0.018156656953153626 L 0.055324424484890125 0.017975995197907463 L 0.054773937263534675 0.01779713105716168 L 0.05422892748155053 0.017620046644353054 L 0.05368934063750534 0.017444724250892656 L 0.05315512277226507 0.017271146344394972 L 0.05262622046359802 0.017099295566924654 L 0.0521025808208326 0.016929154733260694 L 0.051584151479568165 0.01676070682917791 L 0.05107088059643858 0.01659393500974549 L 0.0505627168439278 0.016428822597642487 L 0.050059609405237133 0.01626535308149008 L 0.04956150796920344 0.016103510114200408 L 0.04906836272526803 0.01594327751134186 L 0.04858012435849557 0.01578463924952061 L 0.04809674404464252 0.015627579464778267 L 0.04761817344527468 0.015472082451005465 L 0.047144364702933296 0.015318132658371241 L 0.0466752704363493 0.015165714691768032 L 0.04621084373570512 0.01501481330927216 L 0.045751038157943666 0.01486541342061962 L 0.04529580772212399 0.014717500085697041 L 0.044845106904823163 0.014571058513047668 L 0.04439889063558386 0.0144260740583922 L 0.04395711429240731 0.014282532223164347 L 0.04351973369729105 0.014140418653060968 L 0.043086705111811084 0.013999719136606623 L 0.042657985232748004 0.013860419603732414 L 0.04223353118775664 0.013722506124368969 L 0.041813300531078776 0.013585964907053424 L 0.04139725123929855 0.013450782297550264 L 0.04098534170714008 0.013316944777485884 L 0.04057753074330689 0.013184438962996743 L 0.04017377756636275 0.013053251603390973 L 0.0397740418006535 0.01292336957982329 L 0.03937828347226946 0.012794779903983101 L 0.038986463005047996 0.012667469716795662 L 0.038598541216615864 0.012541426287136163 L 0.038214479314470945 0.012416637010556604 L 0.03783423889210299 0.01229308940802533 L 0.037457781925152873 0.012170771124679137 L 0.037085070767610195 0.012049669928587756 L 0.036716068148048606 0.011929773709530656 L 0.03635073716589865 0.011811070477786022 L 0.03598904128775767 0.011693548362931759 L 0.03563094434373643 0.011577195612658445 L 0.03527641052384212 0.011462000591594091 L 0.0349254043743973 0.011347951780140596 L 0.03457789079449451 0.011235037773321773 L 0.034233835032486185 0.011123247279642845 L 0.033893202682509393 0.011012569119961284 L 0.033555959681045286 0.010902992226368893 L 0.03322207230351267 0.010794505641084995 L 0.03289150716089556 0.010687098515360656 L 0.032564231196404225 0.010580760108393799 L 0.03224021168216948 0.01047547978625511 L 0.03191941621596988 0.010371247020824642 L 0.03160181271799148 0.010268051388738993 L 0.03128736942761981 0.010165882570348955 L 0.0309760549002638 0.010064730348687548 L 0.03066783800421128 0.009964584608448315 L 0.0303626879175158 0.009865435334973775 L 0.03006057412491439 0.009767272613253955 L 0.029761466414776037 0.00967008662693488 L 0.029465334876080464 0.009573867657336931 L 0.02917214989542703 0.009478606082482967 L 0.028881882154073342 0.009384292376136116 L 0.028594502625003376 0.009290917106847148 L 0.028309982570024744 0.009198470937011321 L 0.028028293536894844 0.009106944621934614 L 0.027749407356475624 0.009016329008909245 L 0.027473296139916635 0.008926615036298399 L 0.027199932275866128 0.008837793732630054 L 0.02692928842770989 0.008749856215699825 L 0.026661337530837576 0.008662793691682736 L 0.026396052789936196 0.008576597454253834 L 0.0261334076763106 0.008491258883717547 L 0.025873375925230542 0.008406769446145703 L 0.025615931533304225 0.00832312069252414 L 0.025361048755877923 0.008240304257907786 L 0.025108702104461485 0.008158311860584166 L 0.02485886634417948 0.00807713530124522 L 0.02461151649124769 0.007996766462167368 L 0.024366627810474682 0.007917197306399726 L 0.024124175812788314 0.00783841987696041 L 0.023884136252786774 0.007760426296040829 L 0.023646485126314027 0.007683208764217895 L 0.02341119866805938 0.007606759559674078 L 0.023178253349180937 0.007531071037425216 L 0.022947625874952686 0.00745613562855601 L 0.022719293182435017 0.007381945839463127 L 0.022493232438168396 0.007308494251105832 L 0.022269421035890014 0.00723577351826408 L 0.022047836594273135 0.007163776368803986 L 0.021828456954688942 0.007092495602950605 L 0.02161126017899066 0.007021924092567953 L 0.02139622454731972 0.00695205478044618 L 0.02118332855593376 0.006882880679595849 L 0.02097255091505622 0.006814394872549232 L 0.020763870546747373 0.006746590510668551 L 0.020557266582796486 0.006679460813461114 L 0.02035271836263499 0.00661299906790126 L 0.020150205431270413 0.006547198627759046 L 0.019949707537240857 0.006482052912935626 L 0.019751204630589835 0.006417555408805227 L 0.019554676860861264 0.006353699665563689 L 0.0193601045751144 0.006290479297583475 L 0.01916746831595852 0.006227887982775103 L 0.01897674881960718 0.006165919461954933 L 0.01878792701395181 0.006104567538219242 L 0.018600984016654495 0.006043826076324529 L 0.018415901133259714 0.005983689002073987 L 0.0182326598553249 0.0059241503017100775 L 0.01805124185856955 0.005865204021313146 L 0.017871629001042808 0.005806844266206032 L 0.017693803321309244 0.005749065200364592 L 0.0175177470366527 0.005691861045834093 L 0.017343442541297986 0.00563522608215141 L 0.01717087240465032 0.00557915464577298 L 0.017000019369552227 0.005523641129508438 L 0.016830866350557822 0.005468679981959896 L 0.01666339643222424 0.005414265706966799 L 0.01649759286742009 0.005360392863056301 L 0.01633343907565072 0.005307056062899118 L 0.01617091864140016 0.0052542499727707866 L 0.016010015312489554 0.005201969312018289 L 0.01585071299845192 0.005150208852531981 L 0.015692995768923104 0.005098963418222781 L 0.015536847852048718 0.005048227884504554 L 0.015382253632906951 0.004997997177781649 L 0.015229197651947064 0.004948266274941534 L 0.01507766460344341 0.004899030202852481 L 0.014927639333964866 0.004850284037866252 L 0.014779106840859457 0.004802022905325726 L 0.0146320522707541 0.004754241979077432 " class="mouse" style="mix-blend-mode: hue;" fill="none" stroke="hsl(-90, 100%, 50%)" stroke-width="0.025"></path>
    <path d="M 0.9510565162951535 0.30901699437494745 L 0.8161079553794 0.214771751090636 L 0.7042162557235321 0.1372404812202184 L 0.6113945709438058 0.07352694759726183 L 0.5343459128251381 0.021236120609069445 L 0.4703437779565152 -0.021612551592152154 L 0.4171334308339055 -0.056656865076376225 L 0.37285026901767737 -0.08525117128414186 L 0.3359523144510465 -0.10851542491855859 L 0.30516438653644123 -0.12737574454374095 L 0.27943193554830714 -0.14259795453834154 L 0.2578828647493943 -0.15481532291661265 L 0.23979595883838584 -0.16455149936914393 L 0.224574775563597 -0.17223948408145706 L 0.21172605515178472 -0.17823731416813204 L 0.20084186578545357 -0.18284103570915242 L 0.1915848386396177 -0.18629543109024851 L 0.1836759578580004 -0.18880289007141488 L 0.17688446335976418 -0.19053074579452137 L 0.171019500870772 -0.19161734135832229 L 0.16592321683815883 -0.19217704662461438 L 0.1614650482043791 -0.19230440690848993 L 0.15753700028123646 -0.19207757377224663 L 0.1540497417422434 -0.19156114214839307 L 0.15092937533847162 -0.19080849652111068 L 0.14811476741013924 -0.18986375111915488 L 0.14555533949946006 -0.18876335437284072 L 0.14320924210237632 -0.1875374157311784 L 0.14104184443355416 -0.18621080288223155 L 0.13902448552145713 -0.18480404910635453 L 0.1371334414127366 -0.1833341036171119 L 0.13534907109021904 -0.18181495205945788 L 0.13365511017975668 -0.1802581296333077 L 0.13203808687245075 -0.1786731454227256 L 0.13048683891401555 -0.17706783329581754 L 0.12899211417255932 -0.17544864208162658 L 0.12754624032232176 -0.17382087553162132 L 0.12614285168350475 -0.17218889075512364 L 0.12477666332787718 -0.17055626231441062 L 0.12344328427126451 -0.16892591792179895 L 0.12213906298931522 -0.1673002506527578 L 0.12086095966331681 -0.1656812117387652 L 0.11960644053069071 -0.16407038730043383 L 0.1183733905151734 -0.1624690617999231 L 0.11716004097357072 -0.16087827051077183 L 0.11596490994332034 -0.15929884290561297 L 0.11478675272773098 -0.1577314385333749 L 0.11362452103007721 -0.1561765766856217 L 0.11247732915726753 -0.15463466092679137 L 0.11134442606977953 -0.1531059993771134 L 0.11022517226623767 -0.15159082148319172 L 0.10911902066606156 -0.1500892918840558 L 0.10802550079837336 -0.14860152187530762 L 0.10694420572506455 -0.14712757888701766 L 0.1058747812249188 -0.14566749431909648 L 0.10481691684755347 -0.14422127001839086 L 0.10377033851364259 -0.14278888363256556 L 0.1027348023938685 -0.14137029303515666 L 0.10171008984534739 -0.13996543998254582 L 0.10069600322255956 -0.1385742531357876 L 0.09969236241147619 -0.13719665055722002 L 0.0986990019617569 -0.13583254177276488 L 0.09771576871354395 -0.13448182947509457 L 0.09674251983328411 -0.13314441092983229 L 0.09577912118781598 -0.1318201791361957 L 0.09482544599820497 -0.13050902378459753 L 0.09388137372493435 -0.12921083204635944 L 0.09294678914443374 -0.12792548922461272 L 0.09202158158385189 -0.12665287929042698 L 0.09110564428670606 -0.12539288532404896 L 0.09019887388677665 -0.12414538987769204 L 0.0893011699715312 -0.1229102752734723 L 0.08841243471960053 -0.12168742384773418 L 0.087532572599508 -0.12047671815106285 L 0.08666149011906704 -0.11927804111167169 L 0.08579909561669413 -0.1180912761685223 L 0.08494529908739826 -0.11691630737943479 L 0.084100012037461 -0.11575301950853517 L 0.0832631473628564 -0.11460129809663538 L 0.08243461924731696 -0.11346102951751807 L 0.0816143430766598 -0.11233210102258466 L 0.0808022353665731 -0.11121440077589889 L 0.07999821370154742 -0.11010781788130672 L 0.07920219668303638 -0.10901224240302207 L 0.07841410388526344 -0.1079275653808275 L 0.07763385581736457 -0.10685367884083968 L 0.07686137389078349 -0.10579047580262525 L 0.07609658039102375 -0.10473785028331624 L 0.07533939845301622 -0.10369569729926187 L 0.07458975203948916 -0.10266391286566048 L 0.0738475659218339 -0.10164239399453853 L 0.07311276566304661 -0.10063103869137939 L 0.07238527760239923 -0.09962974595065288 L 0.07166502884155249 -0.09863841575045226 L 0.07095194723187362 -0.09765694904640984 L 0.07024596136276201 -0.09668524776503234 L 0.06954700055082046 -0.09572321479657273 L 0.06885499482973717 -0.09477075398753475 L 0.06816987494076719 -0.09382777013288987 L 0.06749157232372104 -0.09289416896807179 L 0.06682001910838395 -0.09196985716080291 L 0.06615514810630266 -0.09105474230279727 L 0.06549689280288712 -0.09014873290137644 L 0.06484518734978366 -0.08925173837102889 L 0.0641999665574835 -0.08836366902493721 L 0.06356116588813687 -0.0874844360664941 L 0.06292872144854754 -0.08661395158082325 L 0.06230256998332733 -0.08575212852631918 L 0.06168264886819335 -0.08489888072621712 L 0.06106889610339357 -0.08405412286020185 L 0.06046125030724887 -0.08321777045606299 L 0.05985965070980152 -0.08238973988140269 L 0.059264037146561664 -0.08156994833540052 L 0.05867435005234503 -0.08075831384063928 L 0.05809053045519569 -0.07995475523499482 L 0.057512519970389045 -0.07915919216359227 L 0.05694026079451083 -0.07837154507083041 L 0.05637369569960849 -0.0775917351924756 L 0.055812768027411926 -0.0768196845478263 L 0.055257421683620966 -0.0760553159319488 L 0.0547076011322573 -0.0752985529079847 L 0.054163251390078944 -0.07454931979953039 L 0.05362431802105548 -0.07380754168308847 L 0.05309074713090259 -0.07307314438059116 L 0.05256248536167454 -0.07234605445199563 L 0.052039479886413414 -0.07162619918795066 L 0.05152167840385404 -0.0709135066025347 L 0.05100902913318362 -0.07020790542606466 L 0.050501480808855165 -0.06950932509797486 L 0.04999898267545391 -0.06881769575976615 L 0.049501484482615994 -0.06813294824802411 L 0.049008936479998544 -0.0674550140875061 L 0.04852128941230073 -0.0667838254842966 L 0.04803849451433487 -0.06611931531903012 L 0.0475605035061472 -0.06546141714018117 L 0.0470872685881876 -0.06481006515742062 L 0.04661874243652777 -0.06416519423503804 L 0.04615487819812725 -0.06352673988542912 L 0.04569562948614682 -0.06289463826264778 L 0.04524095037530874 -0.06226882615602232 L 0.0447907953973033 -0.06164924098383488 L 0.04434511953624129 -0.06103582078706376 L 0.04390387822415171 -0.0604285042231879 L 0.04346702733652451 -0.0598272305600529 L 0.043034523187897654 -0.059231939669798096 L 0.04260632252748825 -0.05864257202284391 L 0.0421823825348671 -0.0580590686819391 L 0.04176266081567646 -0.0574813712962671 L 0.04134711539739032 -0.05690942209561105 L 0.040935704725117 -0.05634316388457686 L 0.04052838765744348 -0.05578254003687369 L 0.04012512346232113 -0.05522749448965135 L 0.039725871812992364 -0.054677971737894036 L 0.03933059278395787 -0.05413391682886985 L 0.03893924684698396 -0.05359527535663552 L 0.03855179486714968 -0.05306199345659576 L 0.038168198098933216 -0.05253401780011687 L 0.037788418182337316 -0.052011295589193776 L 0.03741241713905318 -0.051493774551170254 L 0.03704015736866262 -0.05098140293351162 L 0.036671601644877934 -0.05047412949862944 L 0.036306713111819246 -0.049971903518757785 L 0.03594545528032887 -0.04947467477088034 L 0.03558779202432237 -0.048982393531708156 L 0.03523368757717588 -0.04849501057270722 L 0.03488310652814943 -0.048012477155175606 L 0.03453601381884583 -0.04753474502536956 L 0.03419237473970477 -0.04706176640967805 L 0.033852154926531874 -0.04659349400984546 L 0.03351532035706224 -0.046129880998241606 L 0.03318183734755816 -0.045670881013179045 L 0.03285167254944072 -0.04521644815427681 L 0.03252479294595492 -0.04476653697787034 L 0.03220116584886798 -0.0443211024924671 L 0.031880758895200464 -0.04388010015424738 L 0.031563540043989986 -0.04344348586260986 L 0.03124947757308704 -0.04301121595576156 L 0.030938540075982807 -0.04258324720635157 L 0.030630696458668446 -0.04215953681714833 L 0.03032591593652567 -0.041740042416759826 L 0.030024168031248275 -0.041324722055396446 L 0.029725422567794268 -0.040913534200675956 L 0.029429649671368338 -0.04050643773347024 L 0.029136819764434364 -0.04010339194379333 L 0.028846903563757617 -0.039704356526730385 L 0.028559872077476435 -0.03930929157840717 L 0.028275696602202985 -0.038918157591999646 L 0.02799434872015293 -0.03853091545378321 L 0.0277158002963036 -0.038147526439221355 L 0.027440023475580482 -0.037767952209093125 L 0.027166990680071695 -0.0373921548056592 L 0.026896674606270158 -0.037020096648866074 L 0.02662904822234322 -0.03665174053258801 L 0.02636408476542947 -0.036287049620906425 L 0.02610175773896241 -0.03592598744442623 L 0.02584204091002078 -0.035568517896628904 L 0.025584908306705265 -0.035214605230261764 L 0.02533033421554125 -0.034864214053763255 L 0.025078293178907474 -0.034517309327723726 L 0.024828759992490235 -0.03417385636138149 L 0.02458170970276295 -0.0338338208091537 L 0.024337117604490765 -0.033497168667201774 L 0.024094959238260032 -0.03316386627003096 L 0.023855210388032323 -0.0328338802871238 L 0.023617847078722828 -0.03250717771960701 L 0.02338284557380281 -0.032183725896951586 L 0.023150182372925942 -0.031863492473705714 L 0.02291983420957825 -0.031546445426260214 L 0.02269177804875144 -0.03123255304964613 L 0.022465991084639383 -0.030921783954364228 L 0.022242450738357514 -0.030614107063246 L 0.022021134655684917 -0.030309491608345937 L 0.021802020704828895 -0.030007907127864702 L 0.02158508697421177 -0.029709323463102927 L 0.021370311770279697 -0.029413710755445313 L 0.021157673615333307 -0.029121039443374748 L 0.0209471512453799 -0.02883128025951614 L 0.02073872360800705 -0.028544404227709624 L 0.02053236986027733 -0.02826038266011297 L 0.020328069366644 -0.027979187154332716 L 0.02012580169688745 -0.027700789590583967 L 0.019925546624072147 -0.02742516212887834 L 0.019727284122523926 -0.027152277206239982 L 0.01953099436582742 -0.02688210753394922 L 0.019336657724843376 -0.026614626094813684 L 0.01914425476574575 -0.026349806140466562 L 0.0189537662480783 -0.026087621188691727 L 0.018765173122830516 -0.02582804502077552 L 0.018578456530532708 -0.025571051678884835 L 0.018393597799370054 -0.025316615463471318 L 0.018210578443315386 -0.0250647109307014 L 0.018029380160280585 -0.024815312889911876 L 0.017849984830286342 -0.024568396401090844 L 0.017672374513650165 -0.02432393677238365 L 0.017496531449192384 -0.02408190955762371 L 0.01732243805246001 -0.023842290553887858 L 0.017150076913968297 -0.023605055799076034 L 0.01697943079745976 -0.023370181569515064 L 0.01681048263818054 -0.023137644377586263 L 0.01664321554117392 -0.022907420969376653 L 0.01647761277959081 -0.02267948832235356 L 0.01631365779301705 -0.02245382364306234 L 0.01615133418581735 -0.02223040436484701 L 0.015990625725495724 -0.022009208145593564 L 0.015831516341072212 -0.021790212865495744 L 0.015673990121475783 -0.021573396624843047 L 0.015518031313953204 -0.021358737741830724 L 0.015363624322493753 -0.02114621475039159 L 0.015210753706269616 -0.0209358063980494 L 0.015059404178091778 -0.020727491643793578 L 0.014909560602881292 -0.020521249655975106 L 0.01476120799615577 -0.020317059810223324 L 0.014614331522530912 -0.02011490168738351 L 0.014468916494236957 -0.019914755071474905 L 0.014324948369649896 -0.019716599947669132 L 0.014182412751837297 -0.01952041650028868 L 0.014041295387118598 -0.019326185110825327 L 0.01390158216363973 -0.019133886355978263 L 0.013763259109961914 -0.01894350100571176 L 0.013626312393664517 -0.018755010021332126 L 0.013490728319961785 -0.018568394553583854 L 0.01335649333033336 -0.018383635940764653 L 0.013223594001168416 -0.018200715706859275 L 0.013092017042423288 -0.018019615559691896 L 0.012961749296292452 -0.017840317389096885 L 0.01283277773589274 -0.017662803265107763 L 0.012705089463960633 -0.017487055436164207 L 0.012578671711562534 -0.01731305632733686 L 0.012453511836817852 -0.017140788538569842 L 0.012329597323634813 -0.016970234842940718 L 0.012206915780458835 -0.016801378184937796 L 0.012085454939033366 -0.016634201678754564 L 0.011965202653173046 -0.01646868860660109 L 0.011846146897549079 -0.01630482241703223 L 0.011728275766486688 -0.01614258672329247 L 0.011611577472774543 -0.01598196530167724 L 0.011496040346486023 -0.015822942089910523 L 0.011381652833812216 -0.015665501185538628 L 0.011268403495906534 -0.015509626844339914 L 0.01115628100774081 -0.015355303478750368 L 0.01104527415697279 -0.015202515656304825 L 0.010935371842824892 -0.015051248098093717 L 0.01082656307497412 -0.014901485677235168 L 0.01071883697245301 -0.014753213417362288 L 0.01061218276256154 -0.01460641649112553 L 0.01050658977978984 -0.014461080218709938 L 0.010402047464751641 -0.014317190066367159 L 0.010298545363128318 -0.014174731644962047 L 0.010196073124623459 -0.014033690708533747 L 0.010094620501927816 -0.013894053152871082 L 0.009994177349694577 -0.01375580501410212 L 0.009894733623524818 -0.013618932467297779 L 0.00979627937896305 -0.013483421825089313 L 0.009698804770502773 -0.01334925953629958 L 0.00960230005060191 -0.013216432184587897 L 0.00950675556870805 -0.013084926487108404 L 0.009412161770293383 -0.012954729293181762 L 0.00931850919589924 -0.01282582758298008 L 0.009225788480190138 -0.012698208466224924 L 0.009133990351017238 -0.012571859180898265 L 0.009043105628491123 -0.01244676709196628 " class="mouse" style="mix-blend-mode: hue;" fill="none" stroke="hsl(-18, 100%, 50%)" stroke-width="0.025"></path>
    <path d="M 0.5877852522924732 -0.8090169943749473 L 0.5340055372464202 -0.6534502169945655 L 0.48905498771666484 -0.5249578111622695 L 0.45141054271836645 -0.41885326228315417 L 0.41981264584041567 -0.33126102964870874 L 0.39321964865561493 -0.2589762146605087 L 0.37077010419957473 -0.19934851218753508 L 0.35175158521405014 -0.15018624308263157 L 0.3355748981038728 -0.10967699299691595 L 0.3217527589285708 -0.07632198392395136 L 0.3098821593143752 -0.04888180215021122 L 0.29962978377963795 -0.02633151748944347 L 0.29071995045448656 -0.007823568725020144 L 0.28292463854443434 0.007342928611097688 L 0.27605524144600957 0.019747563449483647 L 0.2699557469061255 0.029869618406227157 L 0.2644970972883496 0.038105427011217635 L 0.25957252573939366 0.04478272742525331 L 0.25509369938524773 0.05017253237616321 L 0.2509875299078901 0.054498945109568736 L 0.24719353601850125 0.05794727677770383 L 0.24366166232657394 0.06067075918693617 L 0.2403504756298173 0.06279609596434929 L 0.23722567331567418 0.06442805314437024 L 0.23425884986642714 0.06565325539504274 L 0.23142647680546302 0.06654332534076218 L 0.2287090591506919 0.06715747965264207 L 0.22609043783220772 0.06754467590792392 L 0.2235572128164493 0.06774538795375647 L 0.2210982660497418 0.06779307405928225 L 0.2187043669484236 0.06771539101622064 L 0.2163678461516624 0.06753519814925155 L 0.2140823257247622 0.06727138759040172 L 0.21184249604475475 0.06693957088087248 L 0.2096439312903684 0.06655264676154467 L 0.2074829368562746 0.06612127071138624 L 0.205356423167442 0.06565424323540188 L 0.20326180132533514 0.0651588309617855 L 0.20119689680819092 0.06464103217504037 L 0.19915987810131275 0.0641057963999262 L 0.1971491976739133 0.06355720598732856 L 0.19516354316608098 0.06299862627728203 L 0.19320179701913442 0.06243282977659381 L 0.19126300308834654 0.06186209884761474 L 0.1893463390298345 0.06128831062661763 L 0.18745109346248112 0.06071300724679748 L 0.18557664707864358 0.060137453908804664 L 0.1837224570203789 0.05956268690169482 L 0.18188804395614921 0.05898955331329384 L 0.18007298139074432 0.058418743868058884 L 0.17827688682201343 0.05785082008166918 L 0.1764994144248632 0.05728623671579444 L 0.17474024899827156 0.056725360346311746 L 0.17299910095679408 0.05616848471751278 L 0.17127570218585134 0.05561584343846587 L 0.16956980261135718 0.0550676204814579 L 0.16788116736010603 0.05452395886285557 L 0.16620957440872197 0.05398496782091067 L 0.16455481263665642 0.05345072875060872 L 0.16291668021334504 0.052921300110652186 L 0.16129498326172825 0.052396721480449916 L 0.1596895347503401 0.05187701691420518 L 0.15810015357444063 0.05136219771374187 L 0.1565266637935064 0.050852264720659346 L 0.1549688939980485 0.05034721021100044 L 0.15342667678340569 0.04984701946122242 L 0.15189984831202727 0.04935167204235738 L 0.15038824794895878 0.04886114288940464 L 0.14889171795788858 0.04837540318485751 L 0.14741010324730125 0.04789442108853475 L 0.1459432511580916 0.04741816234032049 L 0.14449101128548966 0.046946590757812524 L 0.14305323532938397 0.04647966864707203 L 0.14162977696815243 0.04601735714151955 L 0.1402204917519577 0.045559616481418576 L 0.13882523701216157 0.04510640624423522 L 0.13744387178409329 0.04465768553438187 L 0.13607625674088347 0.044213413139380764 L 0.13472225413647212 0.04377354765826544 L 0.13338172775622562 0.04333804760703151 L 0.13205454287386856 0.042906871505115476 L 0.13074056621365995 0.042479977946191586 L 0.12943966591692815 0.04205732565600763 L 0.12815171151223204 0.0416388735395095 L 0.12687657388854273 0.04122458071911492 L 0.1256141252709441 0.04081440656567493 L 0.1243642391984375 0.04040831072339523 L 0.12312679050350785 0.04000625312976941 L 0.12190165529316624 0.03960819403139391 L 0.12068871093123479 0.03921409399638401 L 0.11948783602167858 0.038823913923985605 L 0.11829891039282382 0.03843761505187449 L 0.11712181508232866 0.03805515896154986 L 0.1159564323227961 0.037676507582158084 L 0.11480264552793741 0.037301623193024824 L 0.11366033927921017 0.03693046842512521 L 0.11252939931286762 0.036563006261682005 L 0.11140971250736748 0.036199200038048954 L 0.11030116687109631 0.035839013441008864 L 0.10920365153037383 0.03548241050759391 L 0.10811705671770654 0.035129355623516705 L 0.10704127376026623 0.03477981352128541 L 0.10597619506857214 0.03443374927806345 L 0.1049217141253593 0.0340911283133237 L 0.10387772547461872 0.033751916386338586 L 0.10284412471079687 0.03341607959354005 L 0.10182080846814444 0.033083584365777574 L 0.10080767441020537 0.03275439746549742 L 0.09980462121943912 0.03242848598386228 L 0.09881154858696965 0.03210581733782705 L 0.09782835720245592 0.031786359267183734 L 0.09685494874407928 0.03147007983158614 L 0.09589122586864389 0.031156947407563227 L 0.09493709220178655 0.03084693068552819 L 0.09399245232829309 0.030539998666789303 L 0.0930572117825187 0.030236120660567283 L 0.09213127703890978 0.02993526628102318 L 0.09121455550262518 0.02963740544429996 L 0.09030695550025522 0.029342508365580427 L 0.08940838627063633 0.029050545556163543 L 0.08851875795576017 0.0287614878205609 L 0.08763798159177558 0.02847530625361465 L 0.086765969100082 0.028191972237637978 L 0.08590263327851325 0.02791145743957897 L 0.08504788779261033 0.027633733808208487 L 0.0842016471669822 0.027358773571332547 L 0.08336382677675344 0.02708654923302961 L 0.08253434283909784 0.026817033570912953 L 0.08171311240485678 0.026550199633418307 L 0.0809000533502416 0.026286020737116916 L 0.08009508436861895 0.026024470464053925 L 0.07929812496237823 0.025765522659112187 L 0.07850909543488026 0.025509151427401372 L 0.07772791688248629 0.025255331131672276 L 0.07695451118666656 0.025004036389756266 L 0.07618880100618751 0.024755242072029657 L 0.07543070976937688 0.024508923298902894 L 0.07468016166646596 0.024265055438334373 L 0.07393708164200798 0.024023614103368694 L 0.07320139538737214 0.023784575149699186 L 0.07247302933331239 0.023547914673254452 L 0.07175191064261012 0.023313609007808794 L 0.07103796720279018 0.02308163472261626 L 0.07033112761890938 0.02285196862006812 L 0.06963132120641675 0.022624587733373565 L 0.06893847798408498 0.022399469324263406 L 0.06825252866701204 0.02217659088071654 L 0.06757340465969262 0.021955930114709015 L 0.06690103804915841 0.02173746495998541 L 0.06623536159818666 0.021521173569852385 L 0.06557630873857642 0.021307034314994155 L 0.0649238135644916 0.02109502578130965 L 0.06427781082587028 0.020885126767771194 L 0.0636382359218996 0.02067731628430448 L 0.06300502489455567 0.020471573549689603 L 0.06237811442220764 0.020267877989482992 L 0.06175744181328549 0.020066209233959985 L 0.061142945000010794 0.01986654711607789 L 0.0605345625321899 0.019668871669459295 L 0.05993223357106884 0.01947316312639543 L 0.05933589788324938 0.019279401915869417 L 0.05874549583466566 0.019087568661599164 L 0.0581609683846207 0.018897644180099735 L 0.057582257079882286 0.018709609478765005 L 0.05700930404883762 0.018523445753968387 L 0.05644205199570606 0.018339134389182464 L 0.055880444194809524 0.01815665695311733 L 0.05532442448489988 0.01797599519787745 L 0.05477393726354274 0.01779713105713686 L 0.0542289274815572 0.01762004664433253 L 0.05368934063751086 0.017444724250875683 L 0.05315512277226963 0.017271146344380938 L 0.0526262204636018 0.017099295566913045 L 0.05210258082083572 0.016929154733251094 L 0.05158415147957075 0.01676070682916997 L 0.051070880596440715 0.016593935009738922 L 0.05056271684392957 0.016428822597637057 L 0.05005960940523859 0.01626535308148559 L 0.049561507969204645 0.01610351011419669 L 0.04906836272526904 0.015943277511338786 L 0.04858012435849641 0.015784639249518066 L 0.048096744044643217 0.01562757946477616 L 0.047618173445275254 0.015472082451003724 L 0.04714436470293377 0.0153181326583698 L 0.04667527043634968 0.01516571469176684 L 0.046210843735705436 0.015014813309271173 L 0.04575103815794393 0.014865413420618803 L 0.04529580772212421 0.014717500085696365 L 0.044845106904823344 0.01457105851304711 L 0.044398890635584005 0.014426074058391738 L 0.04395711429240743 0.014282532223163967 L 0.043519733697291146 0.014140418653060654 L 0.04308670511181117 0.013999719136606362 L 0.04265798523274807 0.013860419603732198 L 0.0422335311877567 0.01372250612436879 L 0.04181330053107882 0.013585964907053277 L 0.041397251239298584 0.01345078229755014 L 0.040985341707140105 0.013316944777485781 L 0.0405775307433069 0.01318443896299666 L 0.040173777566362756 0.013053251603390905 L 0.039774041800653505 0.012923369579823233 L 0.03937828347226947 0.012794779903983054 L 0.038986463005048 0.012667469716795624 L 0.038598541216615864 0.012541426287136132 L 0.038214479314470945 0.012416637010556578 L 0.03783423889210299 0.01229308940802531 L 0.037457781925152873 0.01217077112467912 L 0.037085070767610195 0.012049669928587739 L 0.036716068148048606 0.011929773709530642 L 0.03635073716589865 0.011811070477786009 L 0.03598904128775767 0.011693548362931747 L 0.03563094434373643 0.011577195612658433 L 0.03527641052384212 0.011462000591594081 L 0.0349254043743973 0.011347951780140588 L 0.03457789079449451 0.011235037773321768 L 0.034233835032486185 0.01112324727964284 L 0.033893202682509393 0.01101256911996128 L 0.033555959681045286 0.01090299222636889 L 0.03322207230351267 0.010794505641084992 L 0.03289150716089556 0.010687098515360654 L 0.032564231196404225 0.010580760108393799 L 0.03224021168216948 0.01047547978625511 L 0.03191941621596988 0.010371247020824642 L 0.03160181271799148 0.010268051388738993 L 0.03128736942761981 0.010165882570348955 L 0.0309760549002638 0.010064730348687548 L 0.03066783800421128 0.009964584608448315 L 0.0303626879175158 0.009865435334973775 L 0.03006057412491439 0.009767272613253955 L 0.029761466414776037 0.00967008662693488 L 0.029465334876080464 0.009573867657336931 L 0.02917214989542703 0.009478606082482967 L 0.028881882154073342 0.009384292376136116 L 0.028594502625003376 0.009290917106847148 L 0.028309982570024744 0.009198470937011321 L 0.028028293536894844 0.009106944621934614 L 0.027749407356475624 0.009016329008909245 L 0.027473296139916635 0.008926615036298399 L 0.027199932275866128 0.008837793732630054 L 0.02692928842770989 0.008749856215699825 L 0.026661337530837576 0.008662793691682736 L 0.026396052789936196 0.008576597454253834 L 0.0261334076763106 0.008491258883717547 L 0.025873375925230542 0.008406769446145703 L 0.025615931533304225 0.00832312069252414 L 0.025361048755877923 0.008240304257907786 L 0.025108702104461485 0.008158311860584166 L 0.02485886634417948 0.00807713530124522 L 0.02461151649124769 0.007996766462167368 L 0.024366627810474682 0.007917197306399726 L 0.024124175812788314 0.00783841987696041 L 0.023884136252786774 0.007760426296040829 L 0.023646485126314027 0.007683208764217895 L 0.02341119866805938 0.007606759559674078 L 0.023178253349180937 0.007531071037425216 L 0.022947625874952686 0.00745613562855601 L 0.022719293182435017 0.007381945839463127 L 0.022493232438168396 0.007308494251105832 L 0.022269421035890014 0.00723577351826408 L 0.022047836594273135 0.007163776368803986 L 0.021828456954688942 0.007092495602950605 L 0.02161126017899066 0.007021924092567953 L 0.02139622454731972 0.00695205478044618 L 0.02118332855593376 0.006882880679595849 L 0.02097255091505622 0.006814394872549232 L 0.020763870546747373 0.006746590510668551 L 0.020557266582796486 0.006679460813461114 L 0.02035271836263499 0.00661299906790126 L 0.020150205431270413 0.006547198627759046 L 0.019949707537240857 0.006482052912935626 L 0.019751204630589835 0.006417555408805227 L 0.019554676860861264 0.006353699665563689 L 0.0193601045751144 0.006290479297583475 L 0.01916746831595852 0.006227887982775103 L 0.01897674881960718 0.006165919461954933 L 0.01878792701395181 0.006104567538219242 L 0.018600984016654495 0.006043826076324529 L 0.018415901133259714 0.005983689002073987 L 0.0182326598553249 0.0059241503017100775 L 0.01805124185856955 0.005865204021313146 L 0.017871629001042808 0.005806844266206032 L 0.017693803321309244 0.005749065200364592 L 0.0175177470366527 0.005691861045834093 L 0.017343442541297986 0.00563522608215141 L 0.01717087240465032 0.00557915464577298 L 0.017000019369552227 0.005523641129508438 L 0.016830866350557822 0.005468679981959896 L 0.01666339643222424 0.005414265706966799 L 0.01649759286742009 0.005360392863056301 L 0.01633343907565072 0.005307056062899118 L 0.01617091864140016 0.0052542499727707866 L 0.016010015312489554 0.005201969312018289 L 0.01585071299845192 0.005150208852531981 L 0.015692995768923104 0.005098963418222781 L 0.015536847852048718 0.005048227884504554 L 0.015382253632906951 0.004997997177781649 L 0.015229197651947064 0.004948266274941534 L 0.01507766460344341 0.004899030202852481 L 0.014927639333964866 0.004850284037866252 L 0.014779106840859457 0.004802022905325726 L 0.0146320522707541 0.004754241979077432 " class="mouse" style="mix-blend-mode: hue;" fill="none" stroke="hsl(54, 100%, 50%)" stroke-width="0.025"></path>
    <path d="M -0.587785252292473 -0.8090169943749475 L -0.4564513008476958 -0.70979666796522 L -0.3481382446976364 -0.6273398178735959 L -0.2588595953258834 -0.5587497143715159 L -0.18531871882384693 -0.5016308401852311 L -0.12478946256159829 -0.4540021606582049 L -0.0750174383258604 -0.41422540171574823 L -0.03413838751215568 -0.38094573866883236 L -0.0006106724776368117 -0.35304274827475945 L 0.026840550348506093 -0.32958984809187336 L 0.04926949701853803 -0.3098207544796385 L 0.06754793391652411 -0.2931017447316518 L 0.08239674927766572 -0.2789087189894352 L 0.09441206154189409 -0.26680823137882403 L 0.10408680989267972 -0.25644180353127133 L 0.11182860874766692 -0.247512952503377 L 0.11797451269017176 -0.23977646339285769 L 0.12280322646155797 -0.23302951822677753 L 0.12654520212339523 -0.22710435991111522 L 0.12939098899539567 -0.22186222561335947 L 0.13149813871034663 -0.21718832991437717 L 0.13299691540987094 -0.21298771607660424 L 0.13399501784050538 -0.20918182520899326 L 0.13458148433174658 -0.2057056591032746 L 0.13482992205090072 -0.20250543401216672 L 0.13480117746248796 -0.19953664041654823 L 0.13454554468667332 -0.19676243852894312 L 0.13410459171910005 -0.19415233143724892 L 0.13351267063774294 -0.19168106784563194 L 0.13279816647996404 -0.18932773468292885 L 0.1319845300105284 -0.18707500672374786 L 0.13109113177629786 -0.1849085260526876 L 0.13013396837233301 -0.18281638890353866 L 0.1291262464928919 -0.18078872129323836 L 0.12807886591555426 -0.17881732808548823 L 0.12700081890719275 -0.17689540277773108 L 0.1258995205142487 -0.1750172875038952 L 0.12478108169717325 -0.17317827456355472 L 0.12365053519935042 -0.17137444229176838 L 0.12251202232938875 -0.1696025193272845 L 0.12136894742038722 -0.167859772365063 L 0.1202241055593998 -0.16614391332939563 L 0.11907978821246723 -0.16445302260709577 L 0.11793787057020604 -0.1627854855617364 L 0.11679988377706546 -0.16113994003080007 L 0.11566707466001488 -0.1595152329052749 L 0.11454045511979093 -0.15791038422008932 L 0.11342084297352278 -0.15632455745572996 L 0.112308895728016 -0.15475703497628035 L 0.11120513850699856 -0.15320719771509594 L 0.11010998714395125 -0.1516745083731263 L 0.10902376727709243 -0.1501584975220785 L 0.10794673013832627 -0.14865875210979088 L 0.10687906560825186 -0.14717490595216132 L 0.10582091301033439 -0.14570663186789976 L 0.10477237003547367 -0.14425363517185388 L 0.10373350012050514 -0.14281564829184326 L 0.10270433854818369 -0.14139242631461327 L 0.1016848974899033 -0.1399837433001566 L 0.10067517017411953 -0.1385893892314673 L 0.09967513433178084 -0.13720916748979456 L 0.09868475504389254 -0.13584289276448636 L 0.09770398709468547 -0.13449038932224402 L 0.09673277691595647 -0.13315148957361767 L 0.09577106419334064 -0.13182603288532996 L 0.09481878319303147 -0.1305138645959119 L 0.09387586385733843 -0.1292148351994916 L 0.09294223270909849 -0.12792879966865994 L 0.09201781359803317 -0.12665561689236926 L 0.0911025283164167 -0.12539514920898023 L 0.09019629710668477 -0.12414726201801415 L 0.08929903907969805 -0.1229118234570117 L 0.08841067255913566 -0.1216887041322531 L 0.0875311153648161 -0.12047777689403982 L 0.08666028504552828 -0.11927891664884699 L 0.08579809907012417 -0.11809200020198653 L 0.08494447498410984 -0.11691690612552132 L 0.08409933053771933 -0.11575351464708035 L 0.08326258379042026 -0.11460170755597787 L 0.08243415319594326 -0.11346136812366132 L 0.08161395767121941 -0.11233238103602762 L 0.08080191665202392 -0.11121463233557317 L 0.07999795013763986 -0.11010800937169442 L 0.07920197872645565 -0.10901240075774724 L 0.0784139236440782 -0.10792769633371387 L 0.07763370676527011 -0.10685378713352518 L 0.07686125063079254 -0.10579056535625068 L 0.07609647846004838 -0.10473792434050477 L 0.0753393141602651 -0.10369575854153035 L 0.0745896823328287 -0.1026639635105138 L 0.07384750827727433 -0.10164243587576256 L 0.07311271799335155 -0.10063107332544013 L 0.07238523818150948 -0.09962977459160574 L 0.07166499624208764 -0.09863843943534985 L 0.07095192027344839 -0.09765696863285225 L 0.07024593906924603 -0.0966852639622198 L 0.06954698211499379 -0.09572322819098483 L 0.06885497958406189 -0.0947707650641662 L 0.06816986233321677 -0.09382777929281144 L 0.06749156189779205 -0.0928941765429526 L 0.06682001048656674 -0.09196986342491978 L 0.06615514097641217 -0.09105474748296592 L 0.06549688690675906 -0.09014873718516422 L 0.0648451824739267 -0.08925174191354632 L 0.06419996252534907 -0.08836367195445438 L 0.06356116255372649 -0.08748443848908509 L 0.06292871869112641 -0.086613953584207 L 0.06230256770305275 -0.08575213018303567 L 0.06168264698249946 -0.08489888209625396 L 0.06106889454400179 -0.08405412399316632 L 0.0604612490176956 -0.0832177713929783 L 0.05985964964339366 -0.08238974065619335 L 0.059264036264685946 -0.08156994897612073 L 0.058674349323069856 -0.08075831437048869 L 0.05809052985211492 -0.07995475567315863 L 0.0575125194716659 -0.07915919252593584 L 0.05694026038208717 -0.07837154537047374 L 0.05637369535855098 -0.07759173544026839 L 0.055812767745371306 -0.0768196847527408 L 0.0552574214503849 -0.0760553161014047 L 0.054707600939380596 -0.0752985530481178 L 0.054163251230577796 -0.07454931991541475 L 0.053624317889154546 -0.0738075417789201 L 0.05309074702182591 -0.07307314445984 L 0.05256248527147259 -0.07234605451753116 L 0.05203947981182008 -0.07162619924214586 L 0.051521678342168406 -0.07091350664735194 L 0.05100902908217213 -0.07020790546312669 L 0.05050148076667075 -0.06950932512862365 L 0.04999898264056914 -0.06881769578511145 L 0.04950148445376771 -0.06813294826898363 L 0.049008936456142196 -0.06745501410483876 L 0.048521289392572504 -0.06678382549863 L 0.048038494498020425 -0.06611931533088326 L 0.047560503492655816 -0.06546141714998323 L 0.04708726857703078 -0.06481006516552652 L 0.04661874242730153 -0.06416519424174129 L 0.04615487819049753 -0.06352673989097242 L 0.04569562947983736 -0.06289463826723186 L 0.04524095037009107 -0.06226882615981317 L 0.04479079539298851 -0.06164924098696976 L 0.04434511953267313 -0.06103582078965618 L 0.04390387822120099 -0.06042850422533172 L 0.043467027334084384 -0.059827230561825755 L 0.04303452318587977 -0.05923193967126417 L 0.042606322525819536 -0.058642572024056296 L 0.04218238253348715 -0.05805906868294169 L 0.04176266081453529 -0.0574813712970962 L 0.04134711539644663 -0.05690942209629669 L 0.04093570472433661 -0.05634316388514386 L 0.04052838765679813 -0.05578254003734258 L 0.04012512346178745 -0.055227494490039095 L 0.03972587181255102 -0.05467797173821468 L 0.03933059278359289 -0.054133916829135015 L 0.03893924684668213 -0.053595275356854793 L 0.03855179486690007 -0.0530619934567771 L 0.038168198098726805 -0.05253401780026683 L 0.03778841818216662 -0.05201129558931779 L 0.037412417138912024 -0.051493774551272804 L 0.03704015736854589 -0.05098140293359642 L 0.0366716016447814 -0.05047412949869957 L 0.03630671311173942 -0.04997190351881577 L 0.03594545528026286 -0.0494746747709283 L 0.03558779202426779 -0.04898239353174781 L 0.035233687577130746 -0.04849501057274001 L 0.03488310652811211 -0.04801247715520273 L 0.03453601381881496 -0.04753474502539198 L 0.03419237473967924 -0.0470617664096966 L 0.033852154926510766 -0.04659349400986079 L 0.03351532035704479 -0.04612988099825429 L 0.03318183734754373 -0.045670881013189536 L 0.032851672549428786 -0.04521644815428548 L 0.032524792945945055 -0.04476653697787751 L 0.03220116584885982 -0.04432110249247303 L 0.03188075889519372 -0.043880100154252276 L 0.03156354004398441 -0.043443485862613915 L 0.031249477573082426 -0.04301121595576491 L 0.03093854007597899 -0.04258324720635434 L 0.030630696458665285 -0.042159536817150615 L 0.030325915936523055 -0.04174004241676171 L 0.03002416803124611 -0.04132472205539801 L 0.029725422567792478 -0.040913534200677254 L 0.02942964967136686 -0.04050643773347131 L 0.029136819764433143 -0.04010339194379421 L 0.02884690356375661 -0.03970435652673111 L 0.0285598720774756 -0.039309291578407776 L 0.028275696602202294 -0.038918157592000145 L 0.027994348720152357 -0.038530915453783635 L 0.027715800296303127 -0.03814752643922171 L 0.027440023475580094 -0.037767952209093424 L 0.027166990680071376 -0.037392154805659446 L 0.02689667460626989 -0.03702009664886627 L 0.026629048222342997 -0.03665174053258817 L 0.026364084765429282 -0.03628704962090656 L 0.026101757738962252 -0.03592598744442634 L 0.025842040910020653 -0.03556851789662899 L 0.025584908306705158 -0.03521460523026183 L 0.02533033421554116 -0.03486421405376331 L 0.025078293178907397 -0.034517309327723775 L 0.024828759992490172 -0.03417385636138153 L 0.024581709702762897 -0.03383382080915374 L 0.024337117604490727 -0.0334971686672018 L 0.02409495923826 -0.033163866270030984 L 0.0238552103880323 -0.03283388028712382 L 0.023617847078722807 -0.032507177719607025 L 0.023382845573802793 -0.03218372589695159 L 0.023150182372925928 -0.03186349247370572 L 0.02291983420957824 -0.031546445426260214 L 0.022691778048751436 -0.03123255304964613 L 0.02246599108463938 -0.030921783954364228 L 0.02224245073835751 -0.030614107063246 L 0.022021134655684917 -0.030309491608345937 L 0.021802020704828895 -0.030007907127864702 L 0.02158508697421177 -0.029709323463102927 L 0.021370311770279697 -0.029413710755445313 L 0.021157673615333307 -0.029121039443374748 L 0.0209471512453799 -0.02883128025951614 L 0.02073872360800705 -0.028544404227709624 L 0.02053236986027733 -0.02826038266011297 L 0.020328069366644 -0.027979187154332716 L 0.02012580169688745 -0.027700789590583967 L 0.019925546624072147 -0.02742516212887834 L 0.019727284122523926 -0.027152277206239982 L 0.01953099436582742 -0.02688210753394922 L 0.019336657724843376 -0.026614626094813684 L 0.01914425476574575 -0.026349806140466562 L 0.0189537662480783 -0.026087621188691727 L 0.018765173122830516 -0.02582804502077552 L 0.018578456530532708 -0.025571051678884835 L 0.018393597799370054 -0.025316615463471318 L 0.018210578443315386 -0.0250647109307014 L 0.018029380160280585 -0.024815312889911876 L 0.017849984830286342 -0.024568396401090844 L 0.017672374513650165 -0.02432393677238365 L 0.017496531449192384 -0.02408190955762371 L 0.01732243805246001 -0.023842290553887858 L 0.017150076913968297 -0.023605055799076034 L 0.01697943079745976 -0.023370181569515064 L 0.01681048263818054 -0.023137644377586263 L 0.01664321554117392 -0.022907420969376653 L 0.01647761277959081 -0.02267948832235356 L 0.01631365779301705 -0.02245382364306234 L 0.01615133418581735 -0.02223040436484701 L 0.015990625725495724 -0.022009208145593564 L 0.015831516341072212 -0.021790212865495744 L 0.015673990121475783 -0.021573396624843047 L 0.015518031313953204 -0.021358737741830724 L 0.015363624322493753 -0.02114621475039159 L 0.015210753706269616 -0.0209358063980494 L 0.015059404178091778 -0.020727491643793578 L 0.014909560602881292 -0.020521249655975106 L 0.01476120799615577 -0.020317059810223324 L 0.014614331522530912 -0.02011490168738351 L 0.014468916494236957 -0.019914755071474905 L 0.014324948369649896 -0.019716599947669132 L 0.014182412751837297 -0.01952041650028868 L 0.014041295387118598 -0.019326185110825327 L 0.01390158216363973 -0.019133886355978263 L 0.013763259109961914 -0.01894350100571176 L 0.013626312393664517 -0.018755010021332126 L 0.013490728319961785 -0.018568394553583854 L 0.01335649333033336 -0.018383635940764653 L 0.013223594001168416 -0.018200715706859275 L 0.013092017042423288 -0.018019615559691896 L 0.012961749296292452 -0.017840317389096885 L 0.01283277773589274 -0.017662803265107763 L 0.012705089463960633 -0.017487055436164207 L 0.012578671711562534 -0.01731305632733686 L 0.012453511836817852 -0.017140788538569842 L 0.012329597323634813 -0.016970234842940718 L 0.012206915780458835 -0.016801378184937796 L 0.012085454939033366 -0.016634201678754564 L 0.011965202653173046 -0.01646868860660109 L 0.011846146897549079 -0.01630482241703223 L 0.011728275766486688 -0.01614258672329247 L 0.011611577472774543 -0.01598196530167724 L 0.011496040346486023 -0.015822942089910523 L 0.011381652833812216 -0.015665501185538628 L 0.011268403495906534 -0.015509626844339914 L 0.01115628100774081 -0.015355303478750368 L 0.01104527415697279 -0.015202515656304825 L 0.010935371842824892 -0.015051248098093717 L 0.01082656307497412 -0.014901485677235168 L 0.01071883697245301 -0.014753213417362288 L 0.01061218276256154 -0.01460641649112553 L 0.01050658977978984 -0.014461080218709938 L 0.010402047464751641 -0.014317190066367159 L 0.010298545363128318 -0.014174731644962047 L 0.010196073124623459 -0.014033690708533747 L 0.010094620501927816 -0.013894053152871082 L 0.009994177349694577 -0.01375580501410212 L 0.009894733623524818 -0.013618932467297779 L 0.00979627937896305 -0.013483421825089313 L 0.009698804770502773 -0.01334925953629958 L 0.00960230005060191 -0.013216432184587897 L 0.00950675556870805 -0.013084926487108404 L 0.009412161770293383 -0.012954729293181762 L 0.00931850919589924 -0.01282582758298008 L 0.009225788480190138 -0.012698208466224924 L 0.009133990351017238 -0.012571859180898265 L 0.009043105628491123 -0.01244676709196628 " class="mouse" style="mix-blend-mode: hue;" fill="none" stroke="hsl(126, 100%, 50%)" stroke-width="0.025"></path>
    <path d="M -0.9510565162951536 0.30901699437494723 L -0.9415933458440798 0.3059422239065841 L -0.9322243355122541 0.30289804791556435 L -0.922948548390836 0.29988416198175205 L -0.9137650568933832 0.29690026471404224 L -0.9046729426630932 0.29394605772022153 L -0.8956712964809661 0.2910212455771287 L -0.8867592181748823 0.2881255358011121 L -0.8779358165295845 0.28525863881878105 L -0.8692002091975554 0.2824202679380482 L -0.8605515226107818 0.2796101393194601 L -0.851988891893398 0.2768279719478132 L -0.8435114607751967 0.27407348760405187 L -0.8351183815060014 0.27134641083744626 L -0.826808814770891 0.2686464689380471 L -0.8185819296062673 0.2659733919094146 L -0.8104369033167582 0.26332691244161827 L -0.8023729213929471 0.2607067658845059 L -0.7943891774299217 0.2581126902212384 L -0.7864848730466324 0.2555444260420876 L -0.778659217806054 0.2530017165184954 L -0.770911429136141 0.2504843073773905 L -0.76324073225157 0.247991946875761 L -0.7556463600762602 0.24552438577547972 L -0.7481275531666655 0.2430813773183803 L -0.7406835596358291 0.24066267720158122 L -0.7333136350781947 0.2382680435530552 L -0.7260170424951647 0.23589723690744185 L -0.7187930522214006 0.23355002018210094 L -0.7116409418518548 0.2312261586534039 L -0.7045599961695302 0.2289254199332613 L -0.6975495070739579 0.22664757394588383 L -0.6906087735103862 0.22439239290477458 L -0.6837371013996747 0.22215965128995008 L -0.676933803568886 0.21994912582538823 L -0.6701981996825676 0.21776059545670046 L -0.6635296161747177 0.21559384132902615 L -0.6569273861814287 0.21344864676514685 L -0.650390849474199 0.21132479724381856 L -0.643919352393911 0.20922208037831921 L -0.6375122477854636 0.20714028589521002 L -0.6311688949330566 0.20507920561330784 L -0.6248886594961188 0.20303863342286688 L -0.618670913445873 0.20101836526496764 L -0.6125150350025326 0.19901819911111077 L -0.6064204085731233 0.19703793494301405 L -0.6003864246899233 0.19507737473261047 L -0.5944124799495161 0.19313632242224515 L -0.5884979769524491 0.19121458390506954 L -0.582642324243494 0.18931196700563047 L -0.5768449362525002 0.18742828146065243 L -0.5711052332358373 0.18556333890001123 L -0.5654226412184206 0.18371695282789666 L -0.5597965919363128 0.18188893860416283 L -0.5542265227798974 0.18007911342586405 L -0.5487118767376169 0.1782872963089743 L -0.5432521023402717 0.17651330807028867 L -0.537846653605872 0.174756971309505 L -0.53249498998504 0.17301811039148354 L -0.5271965763069537 0.1712965514286835 L -0.5219508827258301 0.16959212226377393 L -0.5167573846679396 0.16790465245241798 L -0.5116155627791485 0.16623397324622827 L -0.5065249028729831 0.16457991757589197 L -0.5014848958792105 0.16294232003446363 L -0.49649503779293125 0.16132101686082445 L -0.4915548296241785 0.15971584592330598 L -0.4866637773480186 0.15812664670347684 L -0.48182139185514794 0.1565532602800907 L -0.477027188902982 0.15499552931319405 L -0.47228068906723036 0.15345329802839208 L -0.467581417693954 0.15192641220127112 L -0.4629289048520995 0.15041471914197607 L -0.45832268528650555 0.14891806767994123 L -0.4537622983713771 0.14743630814877318 L -0.4492472880642223 0.145969292371284 L -0.4447772028602479 0.14451687364467344 L -0.44035159574720845 0.1430789067258585 L -0.43597002416070463 0.14165524781694894 L -0.43163204993992643 0.1402457545508675 L -0.42733723928383677 0.138850285977113 L -0.42308516270779106 0.13746870254766516 L -0.4188753950005883 0.13610086610302974 L -0.41470751518194954 0.1347466398584224 L -0.41058110646041973 0.13340588839009013 L -0.40649575619168804 0.1320784776217688 L -0.4024510558373231 0.13076427481127542 L -0.3984466009239189 0.12946314853723376 L -0.3944819910026471 0.12817496868593214 L -0.39055682960921156 0.12689960643831194 L -0.38667072422420207 0.1256369342570856 L -0.3828232862338417 0.12438682587398277 L -0.3790141308911252 0.12314915627712336 L -0.3752428772773439 0.12192380169851631 L -0.37150914826399384 0.12071063960168261 L -0.36781257047506216 0.11950954866940162 L -0.36415277424968945 0.11832040879157919 L -0.36052939360520336 0.1171431010532366 L -0.35694206620052 0.11597750772261889 L -0.3533904332999094 0.1148235122394217 L -0.3498741397371218 0.11368099920313501 L -0.34639283387987063 0.11254985436150314 L -0.3429461675946691 0.11142996459909926 L -0.3395337962120165 0.11032121792601392 L -0.3361553784919309 0.10922350346665582 L -0.3328105765898249 0.10813671144866428 L -0.3294990560227209 0.10706073319193184 L -0.32622048563580264 0.10599546109773617 L -0.3229745375692993 0.1049407886379801 L -0.3197608872256992 0.1038966103445388 L -0.31657921323728994 0.10286282179871274 L -0.31342919743402137 0.10183931962078585 L -0.310310524811688 0.10082600145968743 L -0.3072228835004288 0.09982276598275691 L -0.3041659647335396 0.09882951286561059 L -0.3011394628165962 0.09784614278210904 L -0.29814307509688487 0.09687255739442442 L -0.2951765019331366 0.09590865934320665 L -0.2922394466655629 0.09495435223784734 L -0.2893316155861894 0.09400954064684071 L -0.28645271790948507 0.09307413008824031 L -0.283602465743283 0.09214802702021076 L -0.2807805740599915 0.09123113883167351 L -0.2779867606680906 0.09032337383304563 L -0.27522074618391285 0.0894246412470708 L -0.2724822540037049 0.08853485119974144 L -0.2697710102759666 0.08765391471131136 L -0.2670867438740659 0.08678174368739756 L -0.2644291863691256 0.08591825091017087 L -0.2617980720031806 0.08506335002963399 L -0.2591931376626017 0.08421695555498643 L -0.2566141228517841 0.0833789828460754 L -0.25406076966709745 0.08254934810493168 L -0.2515328227710955 0.08172796836738981 L -0.24903002936698207 0.08091476149479156 L -0.24655213917333105 0.08010964616577197 L -0.24409890439905815 0.07931254186812722 L -0.2416700797186416 0.07852336889076329 L -0.23926542224758932 0.0777420483157248 L -0.2368846915181503 0.07696850201030313 L -0.2345276494552677 0.07620265261922313 L -0.23219406035277096 0.07544442355690746 L -0.2298836908498052 0.07469373899981806 L -0.2275963099074948 0.07395052387887362 L -0.22533168878583937 0.0732147038719427 L -0.22308960102083955 0.07248620539641144 L -0.22086982240185044 0.0717649556018252 L -0.2186721309491603 0.07105088236260347 L -0.21649630689179247 0.07034391427082727 L -0.214342132645528 0.06964398062909827 L -0.21220939279114714 0.06895101144346902 L -0.21009787405288716 0.06826493741644349 L -0.20800736527711458 0.06758568994004724 L -0.20593765741120978 0.06691320108896659 L -0.2038885434826614 0.06624740361375603 L -0.20185981857836893 0.0655882309341132 L -0.1998512798241514 0.06493561713222082 L -0.19786272636445956 0.06428949694615485 L -0.19589395934229034 0.06364980576335826 L -0.19394478187930084 0.06301647961417968 L -0.19201499905612046 0.062389455165476435 L -0.19010441789285873 0.06176866971428112 L -0.18821284732980717 0.0611540611815313 L -0.18634009820833314 0.060545568105861515 L -0.1844859832519639 0.059943129637457127 L -0.18265031704765866 0.05934668553196926 L -0.1808329160272673 0.05875617614449032 L -0.17903359844917327 0.05817154242358948 L -0.1772521843801193 0.05759272590540745 L -0.175488495677214 0.05701966870781005 L -0.17374235597011733 0.056452313524599985 L -0.17201359064340346 0.05589060361978613 L -0.17030202681909906 0.05533448282190991 L -0.1686074933393954 0.054783895518428105 L -0.1669298207495324 0.05423878665015154 L -0.16526884128085298 0.05369910170573913 L -0.16362438883402614 0.0531647867162467 L -0.1619962989624368 0.052635788249730024 L -0.1603844088557411 0.05211205340590162 L -0.15878855732358507 0.05159352981084067 L -0.15720858477948566 0.05108016561175555 L -0.15564433322487178 0.05057190947179856 L -0.15409564623328442 0.05006871056493214 L -0.15256236893473388 0.04957051857084628 L -0.15104434800021252 0.04907728366992641 L -0.1495414316263619 0.04858895653827141 L -0.1480534695202922 0.04810548834276116 L -0.1465803128845528 0.047626830736173235 L -0.14512181440225255 0.04715293585234808 L -0.14367782822232777 0.0466837563014024 L -0.14224820994495715 0.046219245164990125 L -0.1408328166071216 0.04575935599161052 L -0.13943150666830784 0.04530404279196299 L -0.1380441399963542 0.044853260034348155 L -0.13667057785343736 0.044406962640114594 L -0.13531068288219839 0.04396510597915097 L -0.13396431909200693 0.04352764586542298 L -0.13263135184536196 0.043094538552554684 L -0.13131164784442803 0.04266574072945388 L -0.1300050751177053 0.042241209515980926 L -0.12871150300683223 0.04182090245866069 L -0.12743080215351982 0.041404777526437196 L -0.12616284448661544 0.040992793106470436 L -0.12490750320929576 0.0405849079999751 L -0.12366465278638696 0.04018108141810063 L -0.122434168931811 0.03978127297785232 L -0.12121592859615704 0.03938544269805296 L -0.12000980995437631 0.038993550995344725 L -0.11881569239359953 0.03860555868023075 L -0.11763345650107551 0.03822142695315621 L -0.11646298405222981 0.03784111740062828 L -0.11530415799884214 0.03746459199137478 L -0.11415686245734147 0.037091813072541016 L -0.11302098269721757 0.03672274336592445 L -0.11189640512954786 0.03635734596424687 L -0.11078301729563843 0.0359955843274636 L -0.10968070785577803 0.0356374222791095 L -0.10858936657810411 0.03528282400268126 L -0.10750888432757945 0.03493175403805574 L -0.10643915305507858 0.03458417727794392 L -0.10538006578658281 0.034240058964380135 L -0.1043315166124827 0.033899364685246264 L -0.10329340067698707 0.03356206037083048 L -0.10226561416763726 0.03322811229042026 L -0.10124805430492584 0.032897487048929266 L -0.10024061933201857 0.03257015158355783 L -0.09924320850457863 0.03224607316048664 L -0.0982557220806921 0.03192521937160331 L -0.09727806131089367 0.03160755813126158 L -0.09631012842829166 0.031293057673072694 L -0.09535182663879119 0.03098168654672875 L -0.09440306011141471 0.030673413614857637 L -0.09346373396871885 0.030368208049909272 L -0.09253375427730658 0.030066039331072825 L -0.09161302803843376 0.0297668772412246 L -0.09070146317870921 0.02947069186390631 L -0.08979896854088734 0.029177453580333405 L -0.0889054538747523 0.028887133066433156 L -0.08802082982809284 0.02859970128991224 L -0.08714500793776714 0.028315129507353484 L -0.08627790062085629 0.028033389261341482 L -0.08541942116590602 0.02775445237761685 L -0.08456948372425542 0.027478290962258765 L -0.08372800330145205 0.027204877398895558 L -0.0828948957487524 0.02693418434594305 L -0.08207007775470694 0.026666184733870363 L -0.08125346683682891 0.026400851762492957 L -0.080444981333346 0.026138158898292584 L -0.07964454039503414 0.025878079871763913 L -0.07885206397713246 0.025620588674787555 L -0.07806747283133876 0.02536565955802924 L -0.07729068849788463 0.025113267028364847 L -0.07652163329768942 0.02486338584633108 L -0.07576023032459221 0.024615991023601506 L -0.0750064034376612 0.024371057820487686 L -0.0742600772535795 0.024128561743465195 L -0.07352117713910676 0.023888478542724256 L -0.07278962920361579 0.02365078420974472 L -0.0720653602917034 0.02341545497489521 L -0.07134829797587486 0.02318246730505613 L -0.07063837054930101 0.02295179790126635 L -0.0699355070186476 0.022723423696393255 L -0.06923963709697584 0.02249732185282605 L -0.06855069119671366 0.02227346976019196 L -0.06786860042269692 0.022051845033095173 L -0.06719329656527981 0.021832425508878293 L -0.06652471209351382 0.02161518924540605 L -0.06586278014839463 0.021400114518871065 L -0.06520743453617611 0.021187179821621455 L -0.06455860972175093 0.02097636386001005 L -0.06391624082209693 0.02076764555226501 L -0.06328026359978886 0.020561004026381623 L -0.0626506144565745 0.020356418618035103 L -0.06202723042701481 0.020153868868514124 L -0.06141004917218735 0.01995333452267494 L -0.06079900897345232 0.019754795526915864 L -0.06019404872628065 0.01955823202717186 L -0.05959510793414348 0.019363624366929157 L -0.05900212670246248 0.01917095308525955 L -0.05841504573262033 0.01898019891487432 L -0.057833806316030814 0.01879134278019746 L -0.0572583503282679 0.018604365795458128 L -0.05668862022325326 0.01841924926280203 L -0.056124559027501617 0.018235974670421637 L -0.055566110334423345 0.018054523690704982 L -0.05501321829868377 0.017874878178402883 L -0.05446582763061856 0.017697020168814408 L -0.05392388359070475 0.01752093187599038 L -0.05338733198408673 0.017346595690954775 L -0.052856119155156714 0.01717399417994381 L -0.05233019198218913 0.017003110082662552 L -0.0518094978720284 0.016833926310558862 L -0.051293984754829595 0.016666425945114548 L -0.0507836010788514 0.01650059223615348 L -0.0502782958053009 0.016336408600166566 L -0.04977801840322966 0.016173858618653388 L -0.04928271884448055 0.016012926036480336 L -0.04879234759868496 0.015853594760255083 L -0.04830685562830967 0.015695848856717227 L -0.04782619438375305 0.01553967255114496 L -0.047350315798490104 0.01538505022577758 " class="mouse" style="mix-blend-mode: hue;" fill="none" stroke="hsl(198, 100%, 50%)" stroke-width="0.025"></path>
</svg>
